<?xml version="1.0" encoding="UTF-8" standalone="no"?>
<!DOCTYPE svg PUBLIC "-//W3C//DTD SVG 1.1//EN"
 "http://www.w3.org/Graphics/SVG/1.1/DTD/svg11.dtd">
<!-- Generated by graphviz version 2.38.0 (20140413.2041)
 -->
<!-- Title: g Pages: 1 -->
<svg width="1641pt" height="186pt"
 viewBox="0.00 0.00 1641.41 186.00" xmlns="http://www.w3.org/2000/svg" xmlns:xlink="http://www.w3.org/1999/xlink">
<g id="graph0" class="graph" transform="scale(1 1) rotate(0) translate(4 182)">
<title>g</title>
<polygon fill="white" stroke="none" points="-4,4 -4,-182 1637.41,-182 1637.41,4 -4,4"/>
<!-- инициализация -->
<g id="node1" class="node"><title>инициализация</title>
<ellipse fill="none" stroke="black" cx="68.2439" cy="-102" rx="68.4888" ry="18"/>
<text text-anchor="middle" x="68.2439" y="-98.3" font-family="Times,serif" font-size="14.00">инициализация</text>
</g>
<!-- инициально опустить руки -->
<g id="node2" class="node"><title>инициально опустить руки</title>
<ellipse fill="none" stroke="black" cx="286.578" cy="-102" rx="113.18" ry="18"/>
<text text-anchor="middle" x="286.578" y="-98.3" font-family="Times,serif" font-size="14.00">инициально опустить руки</text>
</g>
<!-- инициализация&#45;&gt;инициально опустить руки -->
<g id="edge1" class="edge"><title>инициализация&#45;&gt;инициально опустить руки</title>
<path fill="none" stroke="black" d="M136.507,-102C145.161,-102 154.224,-102 163.424,-102"/>
<polygon fill="black" stroke="black" points="163.448,-105.5 173.448,-102 163.448,-98.5001 163.448,-105.5"/>
</g>
<!-- остановка -->
<g id="node3" class="node"><title>остановка</title>
<ellipse fill="none" stroke="black" cx="548.413" cy="-102" rx="48.9926" ry="18"/>
<text text-anchor="middle" x="548.413" y="-98.3" font-family="Times,serif" font-size="14.00">остановка</text>
</g>
<!-- инициально опустить руки&#45;&gt;остановка -->
<g id="edge2" class="edge"><title>инициально опустить руки&#45;&gt;остановка</title>
<path fill="none" stroke="black" d="M400.034,-102C430.789,-102 462.874,-102 489.224,-102"/>
<polygon fill="black" stroke="black" points="489.398,-105.5 499.398,-102 489.398,-98.5001 489.398,-105.5"/>
<text text-anchor="middle" x="449.668" y="-105.8" font-family="Times,serif" font-size="14.00">нажат к. в.</text>
</g>
<!-- ожидание -->
<g id="node9" class="node"><title>ожидание</title>
<ellipse fill="none" stroke="black" cx="682.255" cy="-102" rx="48.1917" ry="18"/>
<text text-anchor="middle" x="682.255" y="-98.3" font-family="Times,serif" font-size="14.00">ожидание</text>
</g>
<!-- остановка&#45;&gt;ожидание -->
<g id="edge11" class="edge"><title>остановка&#45;&gt;ожидание</title>
<path fill="none" stroke="black" d="M597.384,-102C605.957,-102 614.968,-102 623.775,-102"/>
<polygon fill="black" stroke="black" points="623.982,-105.5 633.982,-102 623.982,-98.5001 623.982,-105.5"/>
</g>
<!-- начать движ. вниз -->
<g id="node4" class="node"><title>начать движ. вниз</title>
<ellipse fill="none" stroke="black" cx="988.843" cy="-125" rx="79.8859" ry="18"/>
<text text-anchor="middle" x="988.843" y="-121.3" font-family="Times,serif" font-size="14.00">начать движ. вниз</text>
</g>
<!-- ошибка -->
<g id="node5" class="node"><title>ошибка</title>
<ellipse fill="none" stroke="black" cx="1594.41" cy="-93" rx="38.9931" ry="18"/>
<text text-anchor="middle" x="1594.41" y="-89.3" font-family="Times,serif" font-size="14.00">ошибка</text>
</g>
<!-- начать движ. вниз&#45;&gt;ошибка -->
<g id="edge3" class="edge"><title>начать движ. вниз&#45;&gt;ошибка</title>
<path fill="none" stroke="black" d="M1049.79,-136.692C1063.41,-139.052 1077.84,-141.321 1091.34,-143 1241.36,-161.666 1281.1,-166.12 1431.41,-150 1479.35,-144.86 1492.64,-144.867 1537.41,-127 1546.41,-123.409 1555.62,-118.443 1563.91,-113.415"/>
<polygon fill="black" stroke="black" points="1565.9,-116.298 1572.48,-107.997 1562.16,-110.381 1565.9,-116.298"/>
<text text-anchor="middle" x="1309.87" y="-162.8" font-family="Times,serif" font-size="14.00">время &gt; 10 сек</text>
</g>
<!-- продолжить опускать руки -->
<g id="node6" class="node"><title>продолжить опускать руки</title>
<ellipse fill="none" stroke="black" cx="1309.87" cy="-123" rx="114.28" ry="18"/>
<text text-anchor="middle" x="1309.87" y="-119.3" font-family="Times,serif" font-size="14.00">продолжить опускать руки</text>
</g>
<!-- начать движ. вниз&#45;&gt;продолжить опускать руки -->
<g id="edge4" class="edge"><title>начать движ. вниз&#45;&gt;продолжить опускать руки</title>
<path fill="none" stroke="black" d="M1069.11,-124.503C1104.1,-124.284 1146.04,-124.021 1185,-123.777"/>
<polygon fill="black" stroke="black" points="1185.38,-127.274 1195.36,-123.712 1185.34,-120.274 1185.38,-127.274"/>
<text text-anchor="middle" x="1130.84" y="-127.8" font-family="Times,serif" font-size="14.00">к. в. отпущен</text>
</g>
<!-- продолжить опускать руки&#45;&gt;остановка -->
<g id="edge6" class="edge"><title>продолжить опускать руки&#45;&gt;остановка</title>
<path fill="none" stroke="black" d="M1227.28,-135.483C1208.6,-138.146 1188.8,-140.812 1170.34,-143 933.61,-171.051 867.945,-175.582 634.159,-129 620.523,-126.283 605.994,-122.137 592.888,-117.903"/>
<polygon fill="black" stroke="black" points="593.776,-114.509 583.182,-114.67 591.564,-121.151 593.776,-114.509"/>
<text text-anchor="middle" x="817.351" y="-166.8" font-family="Times,serif" font-size="14.00">к. в. нажат</text>
</g>
<!-- продолжить опускать руки&#45;&gt;ошибка -->
<g id="edge5" class="edge"><title>продолжить опускать руки&#45;&gt;ошибка</title>
<path fill="none" stroke="black" d="M1405.35,-112.969C1452.56,-107.955 1507.64,-102.107 1545.94,-98.0404"/>
<polygon fill="black" stroke="black" points="1546.7,-101.479 1556.28,-96.9428 1545.96,-94.5183 1546.7,-101.479"/>
<text text-anchor="middle" x="1493.41" y="-111.8" font-family="Times,serif" font-size="14.00">время &gt; 10 сек</text>
</g>
<!-- начать движ. вверх -->
<g id="node7" class="node"><title>начать движ. вверх</title>
<ellipse fill="none" stroke="black" cx="988.843" cy="-71" rx="84.485" ry="18"/>
<text text-anchor="middle" x="988.843" y="-67.3" font-family="Times,serif" font-size="14.00">начать движ. вверх</text>
</g>
<!-- начать движ. вверх&#45;&gt;ошибка -->
<g id="edge7" class="edge"><title>начать движ. вверх&#45;&gt;ошибка</title>
<path fill="none" stroke="black" d="M1073.31,-71.6159C1162.13,-72.5695 1306.76,-74.9756 1431.41,-81 1469.92,-82.8611 1513.5,-86.1564 1545.75,-88.8235"/>
<polygon fill="black" stroke="black" points="1545.54,-92.3185 1555.8,-89.6648 1546.13,-85.3429 1545.54,-92.3185"/>
<text text-anchor="middle" x="1309.87" y="-84.8" font-family="Times,serif" font-size="14.00">время &gt; 10 сек</text>
</g>
<!-- продолжить поднимать руки -->
<g id="node8" class="node"><title>продолжить поднимать руки</title>
<ellipse fill="none" stroke="black" cx="1309.87" cy="-18" rx="121.578" ry="18"/>
<text text-anchor="middle" x="1309.87" y="-14.3" font-family="Times,serif" font-size="14.00">продолжить поднимать руки</text>
</g>
<!-- начать движ. вверх&#45;&gt;продолжить поднимать руки -->
<g id="edge8" class="edge"><title>начать движ. вверх&#45;&gt;продолжить поднимать руки</title>
<path fill="none" stroke="black" d="M1037.5,-56.2159C1054.37,-51.4186 1073.57,-46.4496 1091.34,-43 1124.23,-36.6131 1160.25,-31.6608 1193.36,-27.9123"/>
<polygon fill="black" stroke="black" points="1193.98,-31.3652 1203.53,-26.7873 1193.21,-24.4077 1193.98,-31.3652"/>
<text text-anchor="middle" x="1130.84" y="-46.8" font-family="Times,serif" font-size="14.00">к. в. отпущен</text>
</g>
<!-- продолжить поднимать руки&#45;&gt;остановка -->
<g id="edge10" class="edge"><title>продолжить поднимать руки&#45;&gt;остановка</title>
<path fill="none" stroke="black" d="M1190.64,-21.5803C1076.92,-26.0197 900.345,-35.5273 748.351,-55 697.244,-61.5475 684.196,-62.707 634.159,-75 621.015,-78.2294 606.936,-82.4128 594.104,-86.5182"/>
<polygon fill="black" stroke="black" points="592.993,-83.1989 584.57,-89.6254 595.162,-89.8543 592.993,-83.1989"/>
<text text-anchor="middle" x="817.351" y="-58.8" font-family="Times,serif" font-size="14.00">к. в. нажат</text>
</g>
<!-- продолжить поднимать руки&#45;&gt;ошибка -->
<g id="edge9" class="edge"><title>продолжить поднимать руки&#45;&gt;ошибка</title>
<path fill="none" stroke="black" d="M1431.49,-17.5527C1466.81,-21.0216 1504.71,-28.418 1537.41,-43 1550.56,-48.8628 1562.79,-58.9762 1572.45,-68.5801"/>
<polygon fill="black" stroke="black" points="1570.17,-71.2632 1579.6,-76.082 1575.23,-66.4309 1570.17,-71.2632"/>
<text text-anchor="middle" x="1493.41" y="-46.8" font-family="Times,serif" font-size="14.00">время &gt; 10 сек</text>
</g>
<!-- ожидание&#45;&gt;начать движ. вниз -->
<g id="edge12" class="edge"><title>ожидание&#45;&gt;начать движ. вниз</title>
<path fill="none" stroke="black" d="M729.515,-105.493C775.263,-108.948 846.352,-114.316 902.384,-118.547"/>
<polygon fill="black" stroke="black" points="902.426,-122.06 912.662,-119.323 902.954,-115.08 902.426,-122.06"/>
<text text-anchor="middle" x="817.351" y="-119.8" font-family="Times,serif" font-size="14.00">принята команда вниз</text>
</g>
<!-- ожидание&#45;&gt;начать движ. вверх -->
<g id="edge13" class="edge"><title>ожидание&#45;&gt;начать движ. вверх</title>
<path fill="none" stroke="black" d="M722.304,-91.9363C730.84,-90.0358 739.861,-88.2536 748.351,-87 796.348,-79.913 850.226,-75.9629 894.706,-73.7622"/>
<polygon fill="black" stroke="black" points="895.099,-77.2476 904.922,-73.2791 894.768,-70.2555 895.099,-77.2476"/>
<text text-anchor="middle" x="817.351" y="-90.8" font-family="Times,serif" font-size="14.00">принята команда вверх</text>
</g>
</g>
</svg>
