<?xml version="1.0" encoding="UTF-8" standalone="no"?>
<!DOCTYPE svg PUBLIC "-//W3C//DTD SVG 1.1//EN"
 "http://www.w3.org/Graphics/SVG/1.1/DTD/svg11.dtd">
<!-- Generated by graphviz version 2.38.0 (20140413.2041)
 -->
<!-- Title: g Pages: 1 -->
<svg width="1256pt" height="101pt"
 viewBox="0.00 0.00 1255.62 101.00" xmlns="http://www.w3.org/2000/svg" xmlns:xlink="http://www.w3.org/1999/xlink">
<g id="graph0" class="graph" transform="scale(1 1) rotate(0) translate(4 97)">
<title>g</title>
<polygon fill="white" stroke="none" points="-4,4 -4,-97 1251.62,-97 1251.62,4 -4,4"/>
<!-- инициализация -->
<g id="node1" class="node"><title>инициализация</title>
<ellipse fill="none" stroke="black" cx="68.2439" cy="-45" rx="68.4888" ry="18"/>
<text text-anchor="middle" x="68.2439" y="-41.3" font-family="Times,serif" font-size="14.00">инициализация</text>
</g>
<!-- компьютер выключен -->
<g id="node2" class="node"><title>компьютер выключен</title>
<ellipse fill="none" stroke="black" cx="266.43" cy="-45" rx="92.8835" ry="18"/>
<text text-anchor="middle" x="266.43" y="-41.3" font-family="Times,serif" font-size="14.00">компьютер выключен</text>
</g>
<!-- инициализация&#45;&gt;компьютер выключен -->
<g id="edge1" class="edge"><title>инициализация&#45;&gt;компьютер выключен</title>
<path fill="none" stroke="black" d="M136.76,-45C145.296,-45 154.176,-45 163.102,-45"/>
<polygon fill="black" stroke="black" points="163.185,-48.5001 173.185,-45 163.185,-41.5001 163.185,-48.5001"/>
</g>
<!-- компьютер включается -->
<g id="node3" class="node"><title>компьютер включается</title>
<ellipse fill="none" stroke="black" cx="495.163" cy="-45" rx="98.5829" ry="18"/>
<text text-anchor="middle" x="495.163" y="-41.3" font-family="Times,serif" font-size="14.00">компьютер включается</text>
</g>
<!-- компьютер выключен&#45;&gt;компьютер включается -->
<g id="edge2" class="edge"><title>компьютер выключен&#45;&gt;компьютер включается</title>
<path fill="none" stroke="black" d="M359.651,-45C368.286,-45 377.092,-45 385.857,-45"/>
<polygon fill="black" stroke="black" points="386.115,-48.5001 396.115,-45 386.115,-41.5001 386.115,-48.5001"/>
</g>
<!-- компьютер загружается -->
<g id="node4" class="node"><title>компьютер загружается</title>
<ellipse fill="none" stroke="black" cx="731.695" cy="-45" rx="100.983" ry="18"/>
<text text-anchor="middle" x="731.695" y="-41.3" font-family="Times,serif" font-size="14.00">компьютер загружается</text>
</g>
<!-- компьютер включается&#45;&gt;компьютер загружается -->
<g id="edge3" class="edge"><title>компьютер включается&#45;&gt;компьютер загружается</title>
<path fill="none" stroke="black" d="M594.267,-45C602.928,-45 611.732,-45 620.484,-45"/>
<polygon fill="black" stroke="black" points="620.722,-48.5001 630.722,-45 620.722,-41.5001 620.722,-48.5001"/>
</g>
<!-- компьютер загрузился -->
<g id="node5" class="node"><title>компьютер загрузился</title>
<ellipse fill="none" stroke="black" cx="1141.03" cy="-72" rx="95.5831" ry="18"/>
<text text-anchor="middle" x="1141.03" y="-68.3" font-family="Times,serif" font-size="14.00">компьютер загрузился</text>
</g>
<!-- компьютер загружается&#45;&gt;компьютер загрузился -->
<g id="edge4" class="edge"><title>компьютер загружается&#45;&gt;компьютер загрузился</title>
<path fill="none" stroke="black" d="M826.401,-51.2113C890.398,-55.4533 975.082,-61.0667 1040.32,-65.391"/>
<polygon fill="black" stroke="black" points="1040.41,-68.9044 1050.62,-66.0736 1040.87,-61.9198 1040.41,-68.9044"/>
<text text-anchor="middle" x="933.436" y="-81.8" font-family="Times,serif" font-size="14.00">получено подтверждающая</text>
<text text-anchor="middle" x="933.436" y="-66.8" font-family="Times,serif" font-size="14.00"> последовательность</text>
</g>
<!-- компьютер не загрузился -->
<g id="node6" class="node"><title>компьютер не загрузился</title>
<ellipse fill="none" stroke="black" cx="1141.03" cy="-18" rx="106.681" ry="18"/>
<text text-anchor="middle" x="1141.03" y="-14.3" font-family="Times,serif" font-size="14.00">компьютер не загрузился</text>
</g>
<!-- компьютер загружается&#45;&gt;компьютер не загрузился -->
<g id="edge5" class="edge"><title>компьютер загружается&#45;&gt;компьютер не загрузился</title>
<path fill="none" stroke="black" d="M818.498,-35.7529C829.244,-34.7428 840.09,-33.7947 850.436,-33 908.556,-28.5358 973.343,-25.0413 1026.88,-22.5526"/>
<polygon fill="black" stroke="black" points="1027.25,-26.039 1037.08,-22.0839 1026.93,-19.0464 1027.25,-26.039"/>
<text text-anchor="middle" x="933.436" y="-36.8" font-family="Times,serif" font-size="14.00">превышено время ожидания</text>
</g>
</g>
</svg>
