<?xml version="1.0" encoding="UTF-8" standalone="no"?>
<!DOCTYPE svg PUBLIC "-//W3C//DTD SVG 1.1//EN"
 "http://www.w3.org/Graphics/SVG/1.1/DTD/svg11.dtd">
<!-- Generated by graphviz version 2.38.0 (20140413.2041)
 -->
<!-- Title: g Pages: 1 -->
<svg width="870pt" height="174pt"
 viewBox="0.00 0.00 870.47 174.04" xmlns="http://www.w3.org/2000/svg" xmlns:xlink="http://www.w3.org/1999/xlink">
<g id="graph0" class="graph" transform="scale(1 1) rotate(0) translate(4 170.039)">
<title>g</title>
<polygon fill="white" stroke="none" points="-4,4 -4,-170.039 866.471,-170.039 866.471,4 -4,4"/>
<!-- стоим -->
<g id="node1" class="node"><title>стоим</title>
<ellipse fill="none" stroke="black" cx="34.4469" cy="-80.0391" rx="34.394" ry="18"/>
<text text-anchor="middle" x="34.4469" y="-76.3391" font-family="Times,serif" font-size="14.00">стоим</text>
</g>
<!-- захотели ехать -->
<g id="node2" class="node"><title>захотели ехать</title>
<ellipse fill="none" stroke="black" cx="245.488" cy="-80.0391" rx="67.6881" ry="18"/>
<text text-anchor="middle" x="245.488" y="-76.3391" font-family="Times,serif" font-size="14.00">захотели ехать</text>
</g>
<!-- стоим&#45;&gt;захотели ехать -->
<g id="edge1" class="edge"><title>стоим&#45;&gt;захотели ехать</title>
<path fill="none" stroke="black" d="M69.033,-80.0391C95.4948,-80.0391 133.442,-80.0391 167.281,-80.0391"/>
<polygon fill="black" stroke="black" points="167.634,-83.5392 177.634,-80.0391 167.634,-76.5392 167.634,-83.5392"/>
<text text-anchor="middle" x="123.394" y="-83.8391" font-family="Times,serif" font-size="14.00">потребность</text>
</g>
<!-- ехать прямо -->
<g id="node3" class="node"><title>ехать прямо</title>
<ellipse fill="none" stroke="black" cx="524.082" cy="-80.0391" rx="57.6901" ry="18"/>
<text text-anchor="middle" x="524.082" y="-76.3391" font-family="Times,serif" font-size="14.00">ехать прямо</text>
</g>
<!-- захотели ехать&#45;&gt;ехать прямо -->
<g id="edge2" class="edge"><title>захотели ехать&#45;&gt;ехать прямо</title>
<path fill="none" stroke="black" d="M313.091,-80.0391C356.303,-80.0391 412.423,-80.0391 455.775,-80.0391"/>
<polygon fill="black" stroke="black" points="455.942,-83.5392 465.942,-80.0391 455.942,-76.5392 455.942,-83.5392"/>
<text text-anchor="middle" x="389.582" y="-83.8391" font-family="Times,serif" font-size="14.00">no_obstacles ( front )</text>
</g>
<!-- ехать направо -->
<g id="node4" class="node"><title>ехать направо</title>
<ellipse fill="none" stroke="black" cx="798.776" cy="-137.039" rx="63.8893" ry="18"/>
<text text-anchor="middle" x="798.776" y="-133.339" font-family="Times,serif" font-size="14.00">ехать направо</text>
</g>
<!-- захотели ехать&#45;&gt;ехать направо -->
<g id="edge3" class="edge"><title>захотели ехать&#45;&gt;ехать направо</title>
<path fill="none" stroke="black" d="M289.422,-93.7299C371.911,-118.446 558.444,-166.658 717.082,-152.039 723.755,-151.424 730.7,-150.529 737.592,-149.477"/>
<polygon fill="black" stroke="black" points="738.308,-152.906 747.612,-147.838 737.179,-145.998 738.308,-152.906"/>
<text text-anchor="middle" x="524.082" y="-154.839" font-family="Times,serif" font-size="14.00">no_obstacles ( right )</text>
</g>
<!-- ехать налево -->
<g id="node5" class="node"><title>ехать налево</title>
<ellipse fill="none" stroke="black" cx="798.776" cy="-23.0391" rx="59.2899" ry="18"/>
<text text-anchor="middle" x="798.776" y="-19.3391" font-family="Times,serif" font-size="14.00">ехать налево</text>
</g>
<!-- захотели ехать&#45;&gt;ехать налево -->
<g id="edge4" class="edge"><title>захотели ехать&#45;&gt;ехать налево</title>
<path fill="none" stroke="black" d="M287.233,-65.7729C368.612,-38.9874 557.191,14.5308 717.082,-4.03906 726.111,-5.0877 735.596,-6.77533 744.763,-8.72284"/>
<polygon fill="black" stroke="black" points="744.025,-12.1441 754.549,-10.9202 745.559,-5.31418 744.025,-12.1441"/>
<text text-anchor="middle" x="524.082" y="-22.8391" font-family="Times,serif" font-size="14.00">no_obstacles ( left )</text>
</g>
<!-- ехать прямо&#45;&gt;ехать направо -->
<g id="edge5" class="edge"><title>ехать прямо&#45;&gt;ехать направо</title>
<path fill="none" stroke="black" d="M553.089,-95.77C566.839,-102.793 583.896,-110.495 600.082,-115.039 640.502,-126.388 687.115,-131.919 724.924,-134.599"/>
<polygon fill="black" stroke="black" points="725.135,-138.12 735.343,-135.282 725.593,-131.135 725.135,-138.12"/>
<text text-anchor="middle" x="658.582" y="-136.839" font-family="Times,serif" font-size="14.00">no_obstacles ( right )</text>
</g>
<!-- ехать прямо&#45;&gt;ехать налево -->
<g id="edge6" class="edge"><title>ехать прямо&#45;&gt;ехать налево</title>
<path fill="none" stroke="black" d="M569.827,-68.9794C579.77,-66.6114 590.27,-64.18 600.082,-62.0391 651.859,-50.7417 665.09,-49.3038 717.082,-39.0391 724.114,-37.6507 731.49,-36.1918 738.806,-34.7433"/>
<polygon fill="black" stroke="black" points="739.576,-38.1588 748.705,-32.7822 738.215,-31.2923 739.576,-38.1588"/>
<text text-anchor="middle" x="658.582" y="-65.8391" font-family="Times,serif" font-size="14.00">no_obstacles ( left )</text>
</g>
<!-- ехать направо&#45;&gt;ехать прямо -->
<g id="edge7" class="edge"><title>ехать направо&#45;&gt;ехать прямо</title>
<path fill="none" stroke="black" d="M771.941,-120.659C756.605,-111.782 736.431,-101.532 717.082,-96.0391 676.64,-84.5578 629.63,-80.4935 592.249,-79.3307"/>
<polygon fill="black" stroke="black" points="592.058,-75.825 581.974,-79.076 591.884,-82.8229 592.058,-75.825"/>
<text text-anchor="middle" x="658.582" y="-99.8391" font-family="Times,serif" font-size="14.00">no_obstacles ( front )</text>
</g>
<!-- ехать налево&#45;&gt;ехать прямо -->
<g id="edge8" class="edge"><title>ехать налево&#45;&gt;ехать прямо</title>
<path fill="none" stroke="black" d="M749.152,-13.1559C708.19,-6.95516 648.668,-2.9959 600.082,-20.0391 579.902,-27.1178 561.118,-42.1626 547.396,-55.4153"/>
<polygon fill="black" stroke="black" points="544.888,-52.9736 540.317,-62.5315 549.851,-57.9104 544.888,-52.9736"/>
<text text-anchor="middle" x="658.582" y="-23.8391" font-family="Times,serif" font-size="14.00">no_obstacles ( front )</text>
</g>
</g>
</svg>
