<?xml version="1.0" encoding="UTF-8" standalone="no"?>
<!DOCTYPE svg PUBLIC "-//W3C//DTD SVG 1.1//EN"
 "http://www.w3.org/Graphics/SVG/1.1/DTD/svg11.dtd">
<!-- Generated by graphviz version 2.38.0 (20140413.2041)
 -->
<!-- Title: g Pages: 1 -->
<svg width="1792pt" height="134pt"
 viewBox="0.00 0.00 1792.36 133.74" xmlns="http://www.w3.org/2000/svg" xmlns:xlink="http://www.w3.org/1999/xlink">
<g id="graph0" class="graph" transform="scale(1 1) rotate(0) translate(4 129.74)">
<title>g</title>
<polygon fill="white" stroke="none" points="-4,4 -4,-129.74 1788.36,-129.74 1788.36,4 -4,4"/>
<!-- инициализация -->
<g id="node1" class="node"><title>инициализация</title>
<ellipse fill="none" stroke="black" cx="68.2439" cy="-66.8701" rx="68.4888" ry="18"/>
<text text-anchor="middle" x="68.2439" y="-63.1701" font-family="Times,serif" font-size="14.00">инициализация</text>
</g>
<!-- установка в начальное положение -->
<g id="node2" class="node"><title>установка в начальное положение</title>
<ellipse fill="none" stroke="black" cx="312.576" cy="-66.8701" rx="139.175" ry="18"/>
<text text-anchor="middle" x="312.576" y="-63.1701" font-family="Times,serif" font-size="14.00">установка в начальное положение</text>
</g>
<!-- инициализация&#45;&gt;установка в начальное положение -->
<g id="edge1" class="edge"><title>инициализация&#45;&gt;установка в начальное положение</title>
<path fill="none" stroke="black" d="M136.747,-66.8701C145.091,-66.8701 153.86,-66.8701 162.842,-66.8701"/>
<polygon fill="black" stroke="black" points="163.063,-70.3702 173.063,-66.8701 163.063,-63.3702 163.063,-70.3702"/>
</g>
<!-- начальное положение установлено -->
<g id="node3" class="node"><title>начальное положение установлено</title>
<ellipse fill="none" stroke="black" cx="786.701" cy="-66.8701" rx="141.075" ry="18"/>
<text text-anchor="middle" x="786.701" y="-63.1701" font-family="Times,serif" font-size="14.00">начальное положение установлено</text>
</g>
<!-- установка в начальное положение&#45;&gt;начальное положение установлено -->
<g id="edge2" class="edge"><title>установка в начальное положение&#45;&gt;начальное положение установлено</title>
<path fill="none" stroke="black" d="M451.721,-66.8701C509.345,-66.8701 576.431,-66.8701 635.295,-66.8701"/>
<polygon fill="black" stroke="black" points="635.426,-70.3702 645.426,-66.8701 635.426,-63.3702 635.426,-70.3702"/>
<text text-anchor="middle" x="548.663" y="-70.6701" font-family="Times,serif" font-size="14.00">требуемый угол достигнут</text>
</g>
<!-- поворот на Х градусов в горизонтальной
 плоскости -->
<g id="node4" class="node"><title>поворот на Х градусов в горизонтальной
 плоскости</title>
<ellipse fill="none" stroke="black" cx="1250.76" cy="-98.8701" rx="181.039" ry="26.7407"/>
<text text-anchor="middle" x="1250.76" y="-102.67" font-family="Times,serif" font-size="14.00">поворот на Х градусов в горизонтальной</text>
<text text-anchor="middle" x="1250.76" y="-87.6701" font-family="Times,serif" font-size="14.00"> плоскости</text>
</g>
<!-- начальное положение установлено&#45;&gt;поворот на Х градусов в горизонтальной
 плоскости -->
<g id="edge3" class="edge"><title>начальное положение установлено&#45;&gt;поворот на Х градусов в горизонтальной
 плоскости</title>
<path fill="none" stroke="black" d="M910.916,-75.4034C961.629,-78.9156 1021.28,-83.0464 1076.27,-86.8554"/>
<polygon fill="black" stroke="black" points="1076.27,-90.3633 1086.49,-87.5627 1076.75,-83.3801 1076.27,-90.3633"/>
<text text-anchor="middle" x="998.738" y="-87.6701" font-family="Times,serif" font-size="14.00">угол &lt; требуемый</text>
</g>
<!-- поворот на Х градусов в вертикальной
 плоскости -->
<g id="node5" class="node"><title>поворот на Х градусов в вертикальной
 плоскости</title>
<ellipse fill="none" stroke="black" cx="1250.76" cy="-26.8701" rx="173.483" ry="26.7407"/>
<text text-anchor="middle" x="1250.76" y="-30.6701" font-family="Times,serif" font-size="14.00">поворот на Х градусов в вертикальной</text>
<text text-anchor="middle" x="1250.76" y="-15.6701" font-family="Times,serif" font-size="14.00"> плоскости</text>
</g>
<!-- начальное положение установлено&#45;&gt;поворот на Х градусов в вертикальной
 плоскости -->
<g id="edge4" class="edge"><title>начальное положение установлено&#45;&gt;поворот на Х градусов в вертикальной
 плоскости</title>
<path fill="none" stroke="black" d="M903.999,-56.8022C959.964,-51.9573 1027.97,-46.0702 1088.81,-40.8032"/>
<polygon fill="black" stroke="black" points="1089.24,-44.2792 1098.9,-39.9297 1088.64,-37.3053 1089.24,-44.2792"/>
<text text-anchor="middle" x="998.738" y="-56.6701" font-family="Times,serif" font-size="14.00">угол &lt; требуемый</text>
</g>
<!-- поворот завершен -->
<g id="node6" class="node"><title>поворот завершен</title>
<ellipse fill="none" stroke="black" cx="1705.07" cy="-66.8701" rx="79.0865" ry="18"/>
<text text-anchor="middle" x="1705.07" y="-63.1701" font-family="Times,serif" font-size="14.00">поворот завершен</text>
</g>
<!-- поворот на Х градусов в горизонтальной
 плоскости&#45;&gt;поворот завершен -->
<g id="edge5" class="edge"><title>поворот на Х градусов в горизонтальной
 плоскости&#45;&gt;поворот завершен</title>
<path fill="none" stroke="black" d="M1414.41,-87.3625C1483.58,-82.469 1561.37,-76.9655 1618.91,-72.8949"/>
<polygon fill="black" stroke="black" points="1619.32,-76.3747 1629.05,-72.1777 1618.83,-69.3922 1619.32,-76.3747"/>
<text text-anchor="middle" x="1528.78" y="-87.6701" font-family="Times,serif" font-size="14.00">требуемый угол достигнут</text>
</g>
<!-- поворот на Х градусов в вертикальной
 плоскости&#45;&gt;поворот завершен -->
<g id="edge6" class="edge"><title>поворот на Х градусов в вертикальной
 плоскости&#45;&gt;поворот завершен</title>
<path fill="none" stroke="black" d="M1411.44,-36.9805C1472.89,-41.395 1543.67,-47.1172 1607.78,-53.8701 1614.11,-54.5368 1620.66,-55.2895 1627.24,-56.0883"/>
<polygon fill="black" stroke="black" points="1627.21,-59.6115 1637.57,-57.3756 1628.08,-52.6652 1627.21,-59.6115"/>
<text text-anchor="middle" x="1528.78" y="-58.6701" font-family="Times,serif" font-size="14.00">требуемый угол достигнут</text>
</g>
</g>
</svg>
