<?xml version="1.0" encoding="UTF-8" standalone="no"?>
<!DOCTYPE svg PUBLIC "-//W3C//DTD SVG 1.1//EN"
 "http://www.w3.org/Graphics/SVG/1.1/DTD/svg11.dtd">
<!-- Generated by graphviz version 2.38.0 (20140413.2041)
 -->
<!-- Title: g Pages: 1 -->
<svg width="1184pt" height="462pt"
 viewBox="0.00 0.00 1183.97 462.18" xmlns="http://www.w3.org/2000/svg" xmlns:xlink="http://www.w3.org/1999/xlink">
<g id="graph0" class="graph" transform="scale(1 1) rotate(0) translate(4 458.18)">
<title>g</title>
<polygon fill="white" stroke="none" points="-4,4 -4,-458.18 1179.97,-458.18 1179.97,4 -4,4"/>
<!-- инициализация -->
<g id="node1" class="node"><title>инициализация</title>
<ellipse fill="none" stroke="black" cx="89.0421" cy="-252.18" rx="68.4888" ry="18"/>
<text text-anchor="middle" x="89.0421" y="-248.48" font-family="Times,serif" font-size="14.00">инициализация</text>
</g>
<!-- выключить все лампы -->
<g id="node2" class="node"><title>выключить все лампы</title>
<ellipse fill="none" stroke="black" cx="571.991" cy="-237.18" rx="94.7833" ry="18"/>
<text text-anchor="middle" x="571.991" y="-233.48" font-family="Times,serif" font-size="14.00">выключить все лампы</text>
</g>
<!-- инициализация&#45;&gt;выключить все лампы -->
<g id="edge1" class="edge"><title>инициализация&#45;&gt;выключить все лампы</title>
<path fill="none" stroke="black" d="M156.916,-250.095C237.479,-247.582 373.702,-243.333 467.782,-240.399"/>
<polygon fill="black" stroke="black" points="468.008,-243.894 477.894,-240.084 467.79,-236.897 468.008,-243.894"/>
</g>
<!-- включить белые лампы -->
<g id="node3" class="node"><title>включить белые лампы</title>
<ellipse fill="none" stroke="black" cx="1041.44" cy="-389.18" rx="99.3824" ry="18"/>
<text text-anchor="middle" x="1041.44" y="-385.48" font-family="Times,serif" font-size="14.00">включить белые лампы</text>
</g>
<!-- выключить все лампы&#45;&gt;включить белые лампы -->
<g id="edge2" class="edge"><title>выключить все лампы&#45;&gt;включить белые лампы</title>
<path fill="none" stroke="black" d="M583.761,-255.158C606.888,-291.771 665.309,-374.142 739.897,-405.18 818.2,-437.764 918.029,-422.596 980.608,-407.131"/>
<polygon fill="black" stroke="black" points="981.497,-410.516 990.322,-404.654 979.767,-403.733 981.497,-410.516"/>
<text text-anchor="middle" x="814.397" y="-442.98" font-family="Times,serif" font-size="14.00">получено подтверждение</text>
<text text-anchor="middle" x="814.397" y="-427.98" font-family="Times,serif" font-size="14.00"> включения компьютера</text>
</g>
<!-- выключить все лампы&#45;&gt;включить белые лампы -->
<g id="edge6" class="edge"><title>выключить все лампы&#45;&gt;включить белые лампы</title>
<path fill="none" stroke="black" d="M588.86,-255.045C616.285,-284.515 675.797,-342.51 739.897,-367.18 773.985,-380.3 860.299,-385.653 931.725,-387.808"/>
<polygon fill="black" stroke="black" points="932.052,-391.319 942.147,-388.103 932.251,-384.321 932.052,-391.319"/>
<text text-anchor="middle" x="814.397" y="-389.98" font-family="Times,serif" font-size="14.00">поехали вперед</text>
</g>
<!-- включить красные лампы -->
<g id="node6" class="node"><title>включить красные лампы</title>
<ellipse fill="none" stroke="black" cx="1041.44" cy="-287.18" rx="107.781" ry="18"/>
<text text-anchor="middle" x="1041.44" y="-283.48" font-family="Times,serif" font-size="14.00">включить красные лампы</text>
</g>
<!-- выключить все лампы&#45;&gt;включить красные лампы -->
<g id="edge7" class="edge"><title>выключить все лампы&#45;&gt;включить красные лампы</title>
<path fill="none" stroke="black" d="M611.931,-253.627C645.225,-266.746 694.772,-284.062 739.897,-291.18 805.433,-301.518 880.004,-300.6 938.471,-297.058"/>
<polygon fill="black" stroke="black" points="938.696,-300.55 948.451,-296.418 938.248,-293.565 938.696,-300.55"/>
<text text-anchor="middle" x="814.397" y="-303.98" font-family="Times,serif" font-size="14.00">поехали назад</text>
</g>
<!-- включить белую лампу справа -->
<g id="node7" class="node"><title>включить белую лампу справа</title>
<ellipse fill="none" stroke="black" cx="1041.44" cy="-225.18" rx="126.178" ry="18"/>
<text text-anchor="middle" x="1041.44" y="-221.48" font-family="Times,serif" font-size="14.00">включить белую лампу справа</text>
</g>
<!-- выключить все лампы&#45;&gt;включить белую лампу справа -->
<g id="edge10" class="edge"><title>выключить все лампы&#45;&gt;включить белую лампу справа</title>
<path fill="none" stroke="black" d="M666.182,-234.788C735.131,-233.018 830.035,-230.582 907.019,-228.605"/>
<polygon fill="black" stroke="black" points="907.37,-232.097 917.276,-228.342 907.19,-225.1 907.37,-232.097"/>
<text text-anchor="middle" x="814.397" y="-236.98" font-family="Times,serif" font-size="14.00">поехали вперед направо</text>
</g>
<!-- включить красную лампу справа -->
<g id="node8" class="node"><title>включить красную лампу справа</title>
<ellipse fill="none" stroke="black" cx="1041.44" cy="-150.18" rx="134.576" ry="18"/>
<text text-anchor="middle" x="1041.44" y="-146.48" font-family="Times,serif" font-size="14.00">включить красную лампу справа</text>
</g>
<!-- выключить все лампы&#45;&gt;включить красную лампу справа -->
<g id="edge11" class="edge"><title>выключить все лампы&#45;&gt;включить красную лампу справа</title>
<path fill="none" stroke="black" d="M619.998,-221.601C653.181,-211.112 698.861,-197.693 739.897,-189.18 798.824,-176.957 865.09,-167.871 920.374,-161.558"/>
<polygon fill="black" stroke="black" points="921.018,-165.008 930.564,-160.412 920.236,-158.052 921.018,-165.008"/>
<text text-anchor="middle" x="814.397" y="-192.98" font-family="Times,serif" font-size="14.00">поехали назад направо</text>
</g>
<!-- включить белую лампу слева -->
<g id="node9" class="node"><title>включить белую лампу слева</title>
<ellipse fill="none" stroke="black" cx="1041.44" cy="-85.1802" rx="121.578" ry="18"/>
<text text-anchor="middle" x="1041.44" y="-81.4802" font-family="Times,serif" font-size="14.00">включить белую лампу слева</text>
</g>
<!-- выключить все лампы&#45;&gt;включить белую лампу слева -->
<g id="edge12" class="edge"><title>выключить все лампы&#45;&gt;включить белую лампу слева</title>
<path fill="none" stroke="black" d="M629.184,-222.681C660.521,-211.902 697.946,-194.122 721.897,-166.18 740.017,-145.043 718.154,-123.568 739.897,-106.18 802.647,-56.0002 898.304,-58.4804 964.782,-68.4908"/>
<polygon fill="black" stroke="black" points="964.354,-71.9668 974.78,-70.0859 965.457,-65.0542 964.354,-71.9668"/>
<text text-anchor="middle" x="814.397" y="-109.98" font-family="Times,serif" font-size="14.00">поехали вперед налево</text>
</g>
<!-- включить красную лампу слева -->
<g id="node10" class="node"><title>включить красную лампу слева</title>
<ellipse fill="none" stroke="black" cx="1041.44" cy="-31.1802" rx="129.977" ry="18"/>
<text text-anchor="middle" x="1041.44" y="-27.4802" font-family="Times,serif" font-size="14.00">включить красную лампу слева</text>
</g>
<!-- выключить все лампы&#45;&gt;включить красную лампу слева -->
<g id="edge13" class="edge"><title>выключить все лампы&#45;&gt;включить красную лампу слева</title>
<path fill="none" stroke="black" d="M632.603,-223.304C664.05,-212.86 700.457,-195.207 721.897,-166.18 754.461,-122.093 699.193,-80.8846 739.897,-44.1802 803.167,12.8716 907.834,2.49385 975.451,-12.545"/>
<polygon fill="black" stroke="black" points="975.029,-16.0398 985.561,-14.8894 976.61,-9.22077 975.029,-16.0398"/>
<text text-anchor="middle" x="814.397" y="-47.9802" font-family="Times,serif" font-size="14.00">поехали назад налево</text>
</g>
<!-- включить белые лампы&#45;&gt;выключить все лампы -->
<g id="edge8" class="edge"><title>включить белые лампы&#45;&gt;выключить все лампы</title>
<path fill="none" stroke="black" d="M987.723,-373.917C958.694,-365.765 921.95,-355.857 888.897,-348.18 823.182,-332.916 803.843,-340.687 739.897,-319.18 693.606,-303.611 643.741,-277.808 610.691,-259.303"/>
<polygon fill="black" stroke="black" points="612.259,-256.169 601.832,-254.292 608.813,-262.262 612.259,-256.169"/>
<text text-anchor="middle" x="814.397" y="-351.98" font-family="Times,serif" font-size="14.00">остановились</text>
</g>
<!-- выключить все лампы в качестве
 сигнала об ошибке -->
<g id="node4" class="node"><title>выключить все лампы в качестве
 сигнала об ошибке</title>
<ellipse fill="none" stroke="black" cx="571.991" cy="-130.18" rx="149.813" ry="26.7407"/>
<text text-anchor="middle" x="571.991" y="-133.98" font-family="Times,serif" font-size="14.00">выключить все лампы в качестве</text>
<text text-anchor="middle" x="571.991" y="-118.98" font-family="Times,serif" font-size="14.00"> сигнала об ошибке</text>
</g>
<!-- включить все лампы -->
<g id="node5" class="node"><title>включить все лампы</title>
<ellipse fill="none" stroke="black" cx="89.0421" cy="-169.18" rx="89.0842" ry="18"/>
<text text-anchor="middle" x="89.0421" y="-165.48" font-family="Times,serif" font-size="14.00">включить все лампы</text>
</g>
<!-- выключить все лампы в качестве
 сигнала об ошибке&#45;&gt;включить все лампы -->
<g id="edge3" class="edge"><title>выключить все лампы в качестве
 сигнала об ошибке&#45;&gt;включить все лампы</title>
<path fill="none" stroke="black" d="M517.28,-105.093C442.763,-73.9828 304.906,-29.9163 196.084,-72.1802 159.467,-86.4014 127.782,-119.817 108.812,-143.44"/>
<polygon fill="black" stroke="black" points="106.039,-141.304 102.644,-151.34 111.557,-145.612 106.039,-141.304"/>
<text text-anchor="middle" x="300.084" y="-135.98" font-family="Times,serif" font-size="14.00">не получено подтверждение</text>
<text text-anchor="middle" x="300.084" y="-120.98" font-family="Times,serif" font-size="14.00"> включения компьютера за</text>
<text text-anchor="middle" x="300.084" y="-105.98" font-family="Times,serif" font-size="14.00"> 10 сек .| счетчик включений</text>
<text text-anchor="middle" x="300.084" y="-90.9802" font-family="Times,serif" font-size="14.00"> &lt; 5 | счетчик времени включенных</text>
<text text-anchor="middle" x="300.084" y="-75.9802" font-family="Times,serif" font-size="14.00"> ламп &lt; Х</text>
</g>
<!-- включить все лампы&#45;&gt;выключить все лампы -->
<g id="edge5" class="edge"><title>включить все лампы&#45;&gt;выключить все лампы</title>
<path fill="none" stroke="black" d="M139.856,-184.002C157.487,-188.803 177.546,-193.764 196.084,-197.18 247.869,-206.722 382.641,-220.07 475.637,-228.67"/>
<polygon fill="black" stroke="black" points="475.351,-232.159 485.63,-229.591 475.994,-225.188 475.351,-232.159"/>
<text text-anchor="middle" x="300.084" y="-225.98" font-family="Times,serif" font-size="14.00">счетчик включений &gt; 5</text>
</g>
<!-- включить все лампы&#45;&gt;выключить все лампы в качестве
 сигнала об ошибке -->
<g id="edge4" class="edge"><title>включить все лампы&#45;&gt;выключить все лампы в качестве
 сигнала об ошибке</title>
<path fill="none" stroke="black" d="M174.404,-163.995C237.661,-159.931 326.351,-153.86 404.084,-147.18 413.142,-146.402 422.471,-145.561 431.872,-144.683"/>
<polygon fill="black" stroke="black" points="432.465,-148.143 442.092,-143.719 431.807,-141.174 432.465,-148.143"/>
<text text-anchor="middle" x="300.084" y="-181.98" font-family="Times,serif" font-size="14.00">счетчик времени выключенных</text>
<text text-anchor="middle" x="300.084" y="-166.98" font-family="Times,serif" font-size="14.00"> ламп &lt; Х</text>
</g>
<!-- включить красные лампы&#45;&gt;выключить все лампы -->
<g id="edge9" class="edge"><title>включить красные лампы&#45;&gt;выключить все лампы</title>
<path fill="none" stroke="black" d="M950.183,-277.526C868.155,-268.752 747.675,-255.865 665.08,-247.031"/>
<polygon fill="black" stroke="black" points="665.264,-243.53 654.948,-245.947 664.519,-250.491 665.264,-243.53"/>
<text text-anchor="middle" x="814.397" y="-273.98" font-family="Times,serif" font-size="14.00">остановились</text>
</g>
<!-- включить белую лампу справа&#45;&gt;выключить все лампы -->
<g id="edge14" class="edge"><title>включить белую лампу справа&#45;&gt;выключить все лампы</title>
<path fill="none" stroke="black" d="M939.449,-214.545C922.587,-213.145 905.261,-211.935 888.897,-211.18 822.745,-208.131 805.922,-206.069 739.897,-211.18 710.211,-213.479 677.818,-218.044 649.536,-222.716"/>
<polygon fill="black" stroke="black" points="648.594,-219.325 639.314,-224.438 649.757,-226.228 648.594,-219.325"/>
<text text-anchor="middle" x="814.397" y="-214.98" font-family="Times,serif" font-size="14.00">остановились</text>
</g>
<!-- включить красную лампу справа&#45;&gt;выключить все лампы -->
<g id="edge15" class="edge"><title>включить красную лампу справа&#45;&gt;выключить все лампы</title>
<path fill="none" stroke="black" d="M973.823,-134.604C910.834,-123.246 815.033,-114.862 739.897,-147.18 729.212,-151.776 731.306,-159.34 721.897,-166.18 692.634,-187.457 655.992,-205.024 626.378,-217.362"/>
<polygon fill="black" stroke="black" points="624.962,-214.16 617.029,-221.182 627.61,-220.639 624.962,-214.16"/>
<text text-anchor="middle" x="814.397" y="-150.98" font-family="Times,serif" font-size="14.00">остановились</text>
</g>
</g>
</svg>
