<?xml version="1.0" encoding="UTF-8" standalone="no"?>
<!DOCTYPE svg PUBLIC "-//W3C//DTD SVG 1.1//EN"
 "http://www.w3.org/Graphics/SVG/1.1/DTD/svg11.dtd">
<!-- Generated by graphviz version 2.38.0 (20140413.2041)
 -->
<!-- Title: g Pages: 1 -->
<svg width="955pt" height="187pt"
 viewBox="0.00 0.00 955.47 187.07" xmlns="http://www.w3.org/2000/svg" xmlns:xlink="http://www.w3.org/1999/xlink">
<g id="graph0" class="graph" transform="scale(1 1) rotate(0) translate(4 183.072)">
<title>g</title>
<polygon fill="white" stroke="none" points="-4,4 -4,-183.072 951.471,-183.072 951.471,4 -4,4"/>
<!-- стоим -->
<g id="node1" class="node"><title>стоим</title>
<ellipse fill="none" stroke="black" cx="34.4469" cy="-81.0721" rx="34.394" ry="18"/>
<text text-anchor="middle" x="34.4469" y="-77.3721" font-family="Times,serif" font-size="14.00">стоим</text>
</g>
<!-- захотели ехать -->
<g id="node2" class="node"><title>захотели ехать</title>
<ellipse fill="none" stroke="black" cx="245.488" cy="-81.0721" rx="67.6881" ry="18"/>
<text text-anchor="middle" x="245.488" y="-77.3721" font-family="Times,serif" font-size="14.00">захотели ехать</text>
</g>
<!-- стоим&#45;&gt;захотели ехать -->
<g id="edge1" class="edge"><title>стоим&#45;&gt;захотели ехать</title>
<path fill="none" stroke="black" d="M69.033,-81.0721C95.4948,-81.0721 133.442,-81.0721 167.281,-81.0721"/>
<polygon fill="black" stroke="black" points="167.634,-84.5722 177.634,-81.0721 167.634,-77.5722 167.634,-84.5722"/>
<text text-anchor="middle" x="123.394" y="-84.8721" font-family="Times,serif" font-size="14.00">потребность</text>
</g>
<!-- ехать прямо -->
<g id="node3" class="node"><title>ехать прямо</title>
<ellipse fill="none" stroke="black" cx="571.082" cy="-81.0721" rx="57.6901" ry="18"/>
<text text-anchor="middle" x="571.082" y="-77.3721" font-family="Times,serif" font-size="14.00">ехать прямо</text>
</g>
<!-- захотели ехать&#45;&gt;ехать прямо -->
<g id="edge2" class="edge"><title>захотели ехать&#45;&gt;ехать прямо</title>
<path fill="none" stroke="black" d="M313.144,-81.0721C368.619,-81.0721 447.237,-81.0721 502.866,-81.0721"/>
<polygon fill="black" stroke="black" points="502.975,-84.5722 512.975,-81.0721 502.975,-77.5722 502.975,-84.5722"/>
<text text-anchor="middle" x="406.582" y="-99.8721" font-family="Times,serif" font-size="14.00">нет_препятствий ( прямо</text>
<text text-anchor="middle" x="406.582" y="-84.8721" font-family="Times,serif" font-size="14.00"> )</text>
</g>
<!-- ехать направо -->
<g id="node4" class="node"><title>ехать направо</title>
<ellipse fill="none" stroke="black" cx="883.776" cy="-138.072" rx="63.8893" ry="18"/>
<text text-anchor="middle" x="883.776" y="-134.372" font-family="Times,serif" font-size="14.00">ехать направо</text>
</g>
<!-- захотели ехать&#45;&gt;ехать направо -->
<g id="edge3" class="edge"><title>захотели ехать&#45;&gt;ехать направо</title>
<path fill="none" stroke="black" d="M279.559,-96.7282C294.911,-103.376 313.599,-110.607 331.082,-115.072 534.598,-167.055 593.037,-174.597 802.082,-154.072 809.215,-153.372 816.653,-152.331 824.002,-151.11"/>
<polygon fill="black" stroke="black" points="824.696,-154.542 833.931,-149.349 823.473,-147.649 824.696,-154.542"/>
<text text-anchor="middle" x="571.082" y="-167.872" font-family="Times,serif" font-size="14.00">нет препятствий справа</text>
</g>
<!-- ехать налево -->
<g id="node5" class="node"><title>ехать налево</title>
<ellipse fill="none" stroke="black" cx="883.776" cy="-24.0721" rx="59.2899" ry="18"/>
<text text-anchor="middle" x="883.776" y="-20.3721" font-family="Times,serif" font-size="14.00">ехать налево</text>
</g>
<!-- захотели ехать&#45;&gt;ехать налево -->
<g id="edge4" class="edge"><title>захотели ехать&#45;&gt;ехать налево</title>
<path fill="none" stroke="black" d="M295.744,-69.0142C372.854,-50.822 527.031,-17.195 660.082,-5.07206 722.933,0.654576 739.392,2.20874 802.082,-5.07206 811.111,-6.1207 820.596,-7.80833 829.763,-9.75584"/>
<polygon fill="black" stroke="black" points="829.025,-13.1771 839.549,-11.9532 830.559,-6.34719 829.025,-13.1771"/>
<text text-anchor="middle" x="571.082" y="-29.8721" font-family="Times,serif" font-size="14.00">нет препятствий слева</text>
</g>
<!-- ехать прямо&#45;&gt;ехать направо -->
<g id="edge5" class="edge"><title>ехать прямо&#45;&gt;ехать направо</title>
<path fill="none" stroke="black" d="M603.56,-96.085C620.034,-103.296 640.75,-111.372 660.082,-116.072 709.289,-128.036 766.12,-133.52 810.055,-136.021"/>
<polygon fill="black" stroke="black" points="809.906,-139.518 820.077,-136.553 810.277,-132.528 809.906,-139.518"/>
<text text-anchor="middle" x="731.082" y="-138.872" font-family="Times,serif" font-size="14.00">нет препятствий справа</text>
</g>
<!-- ехать прямо&#45;&gt;ехать налево -->
<g id="edge6" class="edge"><title>ехать прямо&#45;&gt;ехать налево</title>
<path fill="none" stroke="black" d="M619.509,-70.9981C632.631,-68.3127 646.89,-65.4884 660.082,-63.0721 722.969,-51.5525 739.16,-51.4022 802.082,-40.0721 809.233,-38.7844 816.729,-37.3766 824.15,-35.9473"/>
<polygon fill="black" stroke="black" points="825.036,-39.3405 834.183,-33.9942 823.699,-32.4694 825.036,-39.3405"/>
<text text-anchor="middle" x="731.082" y="-66.8721" font-family="Times,serif" font-size="14.00">нет препятствий слева</text>
</g>
<!-- ехать направо&#45;&gt;ехать прямо -->
<g id="edge7" class="edge"><title>ехать направо&#45;&gt;ехать прямо</title>
<path fill="none" stroke="black" d="M856.969,-121.593C841.642,-112.683 821.468,-102.433 802.082,-97.0721 748.641,-82.2946 685.691,-78.8248 639.17,-78.7521"/>
<polygon fill="black" stroke="black" points="638.895,-75.253 628.908,-78.7905 638.922,-82.2529 638.895,-75.253"/>
<text text-anchor="middle" x="731.082" y="-100.872" font-family="Times,serif" font-size="14.00">нет препятствий прямо</text>
</g>
<!-- ехать налево&#45;&gt;ехать прямо -->
<g id="edge8" class="edge"><title>ехать налево&#45;&gt;ехать прямо</title>
<path fill="none" stroke="black" d="M832.88,-14.7903C786.909,-8.23241 717.351,-3.40625 660.082,-21.0721 637.061,-28.1735 614.678,-43.5878 598.248,-57.014"/>
<polygon fill="black" stroke="black" points="595.601,-54.6688 590.226,-63.7993 600.122,-60.0132 595.601,-54.6688"/>
<text text-anchor="middle" x="731.082" y="-24.8721" font-family="Times,serif" font-size="14.00">нет препятствий прямо</text>
</g>
</g>
</svg>
