<?xml version="1.0" encoding="UTF-8" standalone="no"?>
<!DOCTYPE svg PUBLIC "-//W3C//DTD SVG 1.1//EN"
 "http://www.w3.org/Graphics/SVG/1.1/DTD/svg11.dtd">
<!-- Generated by graphviz version 2.38.0 (20140413.2041)
 -->
<!-- Title: g Pages: 1 -->
<svg width="997pt" height="422pt"
 viewBox="0.00 0.00 997.33 422.00" xmlns="http://www.w3.org/2000/svg" xmlns:xlink="http://www.w3.org/1999/xlink">
<g id="graph0" class="graph" transform="scale(1 1) rotate(0) translate(4 418)">
<title>g</title>
<polygon fill="white" stroke="none" points="-4,4 -4,-418 993.333,-418 993.333,4 -4,4"/>
<!-- вычислительные средства -->
<g id="node1" class="node"><title>вычислительные средства</title>
<ellipse fill="none" stroke="black" cx="110.49" cy="-220" rx="110.48" ry="18"/>
<text text-anchor="middle" x="110.49" y="-216.3" font-family="Times,serif" font-size="14.00">вычислительные средства</text>
</g>
<!-- бортовая ЭВМ -->
<g id="node2" class="node"><title>бортовая ЭВМ</title>
<ellipse fill="none" stroke="black" cx="325.574" cy="-172" rx="67.6881" ry="18"/>
<text text-anchor="middle" x="325.574" y="-168.3" font-family="Times,serif" font-size="14.00">бортовая ЭВМ</text>
</g>
<!-- вычислительные средства&#45;&gt;бортовая ЭВМ -->
<g id="edge1" class="edge"><title>вычислительные средства&#45;&gt;бортовая ЭВМ</title>
<path fill="none" stroke="black" d="M176.001,-205.468C203.82,-199.202 236.192,-191.909 263.605,-185.734"/>
<polygon fill="black" stroke="black" points="264.476,-189.126 273.462,-183.514 262.938,-182.297 264.476,-189.126"/>
</g>
<!-- микроконтроллер -->
<g id="node3" class="node"><title>микроконтроллер</title>
<ellipse fill="none" stroke="black" cx="580.161" cy="-234" rx="77.9862" ry="18"/>
<text text-anchor="middle" x="580.161" y="-230.3" font-family="Times,serif" font-size="14.00">микроконтроллер</text>
</g>
<!-- вычислительные средства&#45;&gt;микроконтроллер -->
<g id="edge2" class="edge"><title>вычислительные средства&#45;&gt;микроконтроллер</title>
<path fill="none" stroke="black" d="M219.371,-223.229C302.241,-225.71 415.196,-229.092 492.297,-231.4"/>
<polygon fill="black" stroke="black" points="492.36,-234.903 502.46,-231.704 492.569,-227.906 492.36,-234.903"/>
</g>
<!-- бортовая ЭВМ&#45;&gt;микроконтроллер -->
<g id="edge3" class="edge"><title>бортовая ЭВМ&#45;&gt;микроконтроллер</title>
<path fill="none" stroke="black" d="M385.158,-180.579C428.51,-189.872 486.975,-204.311 528.358,-215.993"/>
<polygon fill="black" stroke="black" points="527.651,-219.431 538.228,-218.821 529.579,-212.702 527.651,-219.431"/>
</g>
<!-- камеры -->
<g id="node11" class="node"><title>камеры</title>
<ellipse fill="none" stroke="black" cx="580.161" cy="-180" rx="38.9931" ry="18"/>
<text text-anchor="middle" x="580.161" y="-176.3" font-family="Times,serif" font-size="14.00">камеры</text>
</g>
<!-- бортовая ЭВМ&#45;&gt;камеры -->
<g id="edge13" class="edge"><title>бортовая ЭВМ&#45;&gt;камеры</title>
<path fill="none" stroke="black" d="M393.31,-171.432C421.376,-171.451 454.369,-171.809 484.168,-173 499.607,-173.617 516.431,-174.716 531.572,-175.863"/>
<polygon fill="black" stroke="black" points="531.505,-179.369 541.747,-176.66 532.051,-172.39 531.505,-179.369"/>
<text text-anchor="middle" x="447.668" y="-176.8" font-family="Times,serif" font-size="14.00">usb</text>
</g>
<!-- дисплей -->
<g id="node12" class="node"><title>дисплей</title>
<ellipse fill="none" stroke="black" cx="580.161" cy="-126" rx="42.4939" ry="18"/>
<text text-anchor="middle" x="580.161" y="-122.3" font-family="Times,serif" font-size="14.00">дисплей</text>
</g>
<!-- бортовая ЭВМ&#45;&gt;дисплей -->
<g id="edge14" class="edge"><title>бортовая ЭВМ&#45;&gt;дисплей</title>
<path fill="none" stroke="black" d="M375.638,-159.711C387.249,-156.994 399.615,-154.256 411.168,-152 450.806,-144.259 496.07,-137.365 529.618,-132.624"/>
<polygon fill="black" stroke="black" points="530.216,-136.075 539.635,-131.223 529.246,-129.142 530.216,-136.075"/>
<text text-anchor="middle" x="447.668" y="-155.8" font-family="Times,serif" font-size="14.00">hdmi</text>
</g>
<!-- микрофон -->
<g id="node13" class="node"><title>микрофон</title>
<ellipse fill="none" stroke="black" cx="580.161" cy="-72" rx="50.0912" ry="18"/>
<text text-anchor="middle" x="580.161" y="-68.3" font-family="Times,serif" font-size="14.00">микрофон</text>
</g>
<!-- бортовая ЭВМ&#45;&gt;микрофон -->
<g id="edge15" class="edge"><title>бортовая ЭВМ&#45;&gt;микрофон</title>
<path fill="none" stroke="black" d="M350.047,-155.151C366.514,-143.948 389.395,-129.586 411.168,-120 448.277,-103.662 492.436,-91.2989 526.164,-83.2142"/>
<polygon fill="black" stroke="black" points="527.34,-86.5334 536.277,-80.8429 525.742,-79.7183 527.34,-86.5334"/>
<text text-anchor="middle" x="447.668" y="-123.8" font-family="Times,serif" font-size="14.00">audio кабель</text>
</g>
<!-- динамики -->
<g id="node14" class="node"><title>динамики</title>
<ellipse fill="none" stroke="black" cx="580.161" cy="-18" rx="48.9926" ry="18"/>
<text text-anchor="middle" x="580.161" y="-14.3" font-family="Times,serif" font-size="14.00">динамики</text>
</g>
<!-- бортовая ЭВМ&#45;&gt;динамики -->
<g id="edge16" class="edge"><title>бортовая ЭВМ&#45;&gt;динамики</title>
<path fill="none" stroke="black" d="M337.861,-154.055C352.345,-132.404 379.426,-96.2697 411.168,-75 446.099,-51.594 491.551,-36.9416 526.367,-28.363"/>
<polygon fill="black" stroke="black" points="527.424,-31.7097 536.347,-25.9976 525.809,-24.8985 527.424,-31.7097"/>
<text text-anchor="middle" x="447.668" y="-78.8" font-family="Times,serif" font-size="14.00">audio кабель</text>
</g>
<!-- микроконтроллер&#45;&gt;бортовая ЭВМ -->
<g id="edge4" class="edge"><title>микроконтроллер&#45;&gt;бортовая ЭВМ</title>
<path fill="none" stroke="black" d="M514.646,-224.138C471.214,-214.663 414.85,-200.655 375.192,-189.388"/>
<polygon fill="black" stroke="black" points="376.066,-185.998 365.488,-186.588 374.125,-192.723 376.066,-185.998"/>
</g>
<!-- лампочки -->
<g id="node4" class="node"><title>лампочки</title>
<ellipse fill="none" stroke="black" cx="869.744" cy="-396" rx="48.1917" ry="18"/>
<text text-anchor="middle" x="869.744" y="-392.3" font-family="Times,serif" font-size="14.00">лампочки</text>
</g>
<!-- микроконтроллер&#45;&gt;лампочки -->
<g id="edge5" class="edge"><title>микроконтроллер&#45;&gt;лампочки</title>
<path fill="none" stroke="black" d="M598.04,-251.968C626.525,-281.173 687.216,-338.716 750.155,-369 769.94,-378.52 793.218,-384.761 813.887,-388.816"/>
<polygon fill="black" stroke="black" points="813.33,-392.272 823.798,-390.636 814.594,-385.387 813.33,-392.272"/>
</g>
<!-- драйвер моторов ног -->
<g id="node5" class="node"><title>драйвер моторов ног</title>
<ellipse fill="none" stroke="black" cx="869.744" cy="-342" rx="90.9839" ry="18"/>
<text text-anchor="middle" x="869.744" y="-338.3" font-family="Times,serif" font-size="14.00">драйвер моторов ног</text>
</g>
<!-- микроконтроллер&#45;&gt;драйвер моторов ног -->
<g id="edge6" class="edge"><title>микроконтроллер&#45;&gt;драйвер моторов ног</title>
<path fill="none" stroke="black" d="M610.825,-250.73C643.913,-268.789 699.463,-297.33 750.155,-315 763.763,-319.744 778.544,-323.877 792.905,-327.388"/>
<polygon fill="black" stroke="black" points="792.224,-330.824 802.761,-329.72 793.836,-324.012 792.224,-330.824"/>
</g>
<!-- драйвер моторов рук -->
<g id="node6" class="node"><title>драйвер моторов рук</title>
<ellipse fill="none" stroke="black" cx="869.744" cy="-288" rx="91.784" ry="18"/>
<text text-anchor="middle" x="869.744" y="-284.3" font-family="Times,serif" font-size="14.00">драйвер моторов рук</text>
</g>
<!-- микроконтроллер&#45;&gt;драйвер моторов рук -->
<g id="edge7" class="edge"><title>микроконтроллер&#45;&gt;драйвер моторов рук</title>
<path fill="none" stroke="black" d="M633.26,-247.388C647.15,-250.745 662.181,-254.188 676.155,-257 711.508,-264.114 750.772,-270.673 784.577,-275.909"/>
<polygon fill="black" stroke="black" points="784.467,-279.433 794.882,-277.49 785.529,-272.514 784.467,-279.433"/>
</g>
<!-- контроллер серво&#45; приводов -->
<g id="node7" class="node"><title>контроллер серво&#45; приводов</title>
<ellipse fill="none" stroke="black" cx="869.744" cy="-234" rx="119.679" ry="18"/>
<text text-anchor="middle" x="869.744" y="-230.3" font-family="Times,serif" font-size="14.00">контроллер серво&#45; приводов</text>
</g>
<!-- микроконтроллер&#45;&gt;контроллер серво&#45; приводов -->
<g id="edge8" class="edge"><title>микроконтроллер&#45;&gt;контроллер серво&#45; приводов</title>
<path fill="none" stroke="black" d="M654.102,-228.039C682.632,-227.347 716.122,-227.111 748.052,-227.328"/>
<polygon fill="black" stroke="black" points="748.326,-230.83 758.355,-227.415 748.385,-223.831 748.326,-230.83"/>
</g>
<!-- микроконтроллер&#45;&gt;контроллер серво&#45; приводов -->
<g id="edge9" class="edge"><title>микроконтроллер&#45;&gt;контроллер серво&#45; приводов</title>
<path fill="none" stroke="black" d="M654.102,-239.961C682.632,-240.653 716.122,-240.889 748.052,-240.672"/>
<polygon fill="black" stroke="black" points="748.385,-244.169 758.355,-240.585 748.326,-237.17 748.385,-244.169"/>
</g>
<!-- дальномеры -->
<g id="node8" class="node"><title>дальномеры</title>
<ellipse fill="none" stroke="black" cx="869.744" cy="-180" rx="56.59" ry="18"/>
<text text-anchor="middle" x="869.744" y="-176.3" font-family="Times,serif" font-size="14.00">дальномеры</text>
</g>
<!-- микроконтроллер&#45;&gt;дальномеры -->
<g id="edge10" class="edge"><title>микроконтроллер&#45;&gt;дальномеры</title>
<path fill="none" stroke="black" d="M639.405,-222.182C651.542,-219.766 664.26,-217.27 676.155,-215 721.046,-206.432 771.92,-197.207 810.103,-190.38"/>
<polygon fill="black" stroke="black" points="810.792,-193.813 820.022,-188.61 809.562,-186.921 810.792,-193.813"/>
<text text-anchor="middle" x="704.155" y="-218.8" font-family="Times,serif" font-size="14.00">trig / echo</text>
</g>
<!-- гироскоп -->
<g id="node9" class="node"><title>гироскоп</title>
<ellipse fill="none" stroke="black" cx="869.744" cy="-126" rx="45.4919" ry="18"/>
<text text-anchor="middle" x="869.744" y="-122.3" font-family="Times,serif" font-size="14.00">гироскоп</text>
</g>
<!-- микроконтроллер&#45;&gt;гироскоп -->
<g id="edge11" class="edge"><title>микроконтроллер&#45;&gt;гироскоп</title>
<path fill="none" stroke="black" d="M631.879,-220.499C641.044,-216.89 650.203,-212.437 658.155,-207 668.302,-200.062 666.301,-193.349 676.155,-186 705.021,-164.471 715.991,-164.385 750.155,-153 772.031,-145.71 796.823,-139.726 818.063,-135.261"/>
<polygon fill="black" stroke="black" points="818.766,-138.69 827.861,-133.254 817.362,-131.832 818.766,-138.69"/>
<text text-anchor="middle" x="704.155" y="-189.8" font-family="Times,serif" font-size="14.00">i2c</text>
</g>
<!-- датчик движения -->
<g id="node10" class="node"><title>датчик движения</title>
<ellipse fill="none" stroke="black" cx="869.744" cy="-72" rx="77.1866" ry="18"/>
<text text-anchor="middle" x="869.744" y="-68.3" font-family="Times,serif" font-size="14.00">датчик движения</text>
</g>
<!-- микроконтроллер&#45;&gt;датчик движения -->
<g id="edge12" class="edge"><title>микроконтроллер&#45;&gt;датчик движения</title>
<path fill="none" stroke="black" d="M637.304,-221.729C645.091,-218.04 652.385,-213.241 658.155,-207 679.376,-184.043 656.814,-163.563 676.155,-139 699.283,-109.627 715.161,-112.16 750.155,-99 764.989,-93.4212 781.319,-88.7928 796.993,-85.0369"/>
<polygon fill="black" stroke="black" points="798.215,-88.3472 807.175,-82.6936 796.645,-81.5255 798.215,-88.3472"/>
<text text-anchor="middle" x="704.155" y="-142.8" font-family="Times,serif" font-size="14.00">i2c</text>
</g>
</g>
</svg>
