<?xml version="1.0" encoding="UTF-8" standalone="no"?>
<!DOCTYPE svg PUBLIC "-//W3C//DTD SVG 1.1//EN"
 "http://www.w3.org/Graphics/SVG/1.1/DTD/svg11.dtd">
<!-- Generated by graphviz version 2.38.0 (20140413.2041)
 -->
<!-- Title: g Pages: 1 -->
<svg width="431pt" height="206pt"
 viewBox="0.00 0.00 431.37 206.00" xmlns="http://www.w3.org/2000/svg" xmlns:xlink="http://www.w3.org/1999/xlink">
<g id="graph0" class="graph" transform="scale(1 1) rotate(0) translate(4 202)">
<title>g</title>
<polygon fill="white" stroke="none" points="-4,4 -4,-202 427.366,-202 427.366,4 -4,4"/>
<!-- датчики окруж. обстановки -->
<g id="node1" class="node"><title>датчики окруж. обстановки</title>
<ellipse fill="none" stroke="black" cx="116.34" cy="-99" rx="116.18" ry="18"/>
<text text-anchor="middle" x="116.34" y="-95.3" font-family="Times,serif" font-size="14.00">датчики окруж. обстановки</text>
</g>
<!-- дальномеры -->
<g id="node2" class="node"><title>дальномеры</title>
<ellipse fill="none" stroke="black" cx="346.022" cy="-180" rx="56.59" ry="18"/>
<text text-anchor="middle" x="346.022" y="-176.3" font-family="Times,serif" font-size="14.00">дальномеры</text>
</g>
<!-- датчики окруж. обстановки&#45;&gt;дальномеры -->
<g id="edge1" class="edge"><title>датчики окруж. обстановки&#45;&gt;дальномеры</title>
<path fill="none" stroke="black" d="M163.693,-115.577C193.64,-126.278 233.454,-140.487 268.679,-153 278.118,-156.353 288.217,-159.931 297.876,-163.349"/>
<polygon fill="black" stroke="black" points="296.755,-166.665 307.349,-166.7 299.089,-160.065 296.755,-166.665"/>
</g>
<!-- гироскоп -->
<g id="node3" class="node"><title>гироскоп</title>
<ellipse fill="none" stroke="black" cx="346.022" cy="-126" rx="45.4919" ry="18"/>
<text text-anchor="middle" x="346.022" y="-122.3" font-family="Times,serif" font-size="14.00">гироскоп</text>
</g>
<!-- датчики окруж. обстановки&#45;&gt;гироскоп -->
<g id="edge2" class="edge"><title>датчики окруж. обстановки&#45;&gt;гироскоп</title>
<path fill="none" stroke="black" d="M209.291,-109.904C237.368,-113.234 267.292,-116.782 291.878,-119.698"/>
<polygon fill="black" stroke="black" points="291.725,-123.204 302.068,-120.906 292.549,-116.253 291.725,-123.204"/>
</g>
<!-- датчик движения -->
<g id="node4" class="node"><title>датчик движения</title>
<ellipse fill="none" stroke="black" cx="346.022" cy="-72" rx="77.1866" ry="18"/>
<text text-anchor="middle" x="346.022" y="-68.3" font-family="Times,serif" font-size="14.00">датчик движения</text>
</g>
<!-- датчики окруж. обстановки&#45;&gt;датчик движения -->
<g id="edge3" class="edge"><title>датчики окруж. обстановки&#45;&gt;датчик движения</title>
<path fill="none" stroke="black" d="M209.291,-88.0959C228.347,-85.836 248.254,-83.4753 266.766,-81.2801"/>
<polygon fill="black" stroke="black" points="267.374,-84.7327 276.892,-80.0793 266.549,-77.7814 267.374,-84.7327"/>
</g>
<!-- камеры -->
<g id="node5" class="node"><title>камеры</title>
<ellipse fill="none" stroke="black" cx="346.022" cy="-18" rx="38.9931" ry="18"/>
<text text-anchor="middle" x="346.022" y="-14.3" font-family="Times,serif" font-size="14.00">камеры</text>
</g>
<!-- датчики окруж. обстановки&#45;&gt;камеры -->
<g id="edge4" class="edge"><title>датчики окруж. обстановки&#45;&gt;камеры</title>
<path fill="none" stroke="black" d="M163.693,-82.4228C193.64,-71.722 233.454,-57.5133 268.679,-45 280.478,-40.8087 293.307,-36.2658 305.022,-32.1232"/>
<polygon fill="black" stroke="black" points="306.291,-35.3868 314.553,-28.7541 303.958,-28.787 306.291,-35.3868"/>
</g>
</g>
</svg>
