<?xml version="1.0" encoding="UTF-8" standalone="no"?>
<!DOCTYPE svg PUBLIC "-//W3C//DTD SVG 1.1//EN"
 "http://www.w3.org/Graphics/SVG/1.1/DTD/svg11.dtd">
<!-- Generated by graphviz version 2.38.0 (20140413.2041)
 -->
<!-- Title: g Pages: 1 -->
<svg width="427pt" height="206pt"
 viewBox="0.00 0.00 427.47 206.00" xmlns="http://www.w3.org/2000/svg" xmlns:xlink="http://www.w3.org/1999/xlink">
<g id="graph0" class="graph" transform="scale(1 1) rotate(0) translate(4 202)">
<title>g</title>
<polygon fill="white" stroke="none" points="-4,4 -4,-202 423.466,-202 423.466,4 -4,4"/>
<!-- исполнительные механизмы -->
<g id="node1" class="node"><title>исполнительные механизмы</title>
<ellipse fill="none" stroke="black" cx="118.29" cy="-99" rx="118.079" ry="18"/>
<text text-anchor="middle" x="118.29" y="-95.3" font-family="Times,serif" font-size="14.00">исполнительные механизмы</text>
</g>
<!-- приводы ног -->
<g id="node2" class="node"><title>приводы ног</title>
<ellipse fill="none" stroke="black" cx="346.022" cy="-180" rx="59.2899" ry="18"/>
<text text-anchor="middle" x="346.022" y="-176.3" font-family="Times,serif" font-size="14.00">приводы ног</text>
</g>
<!-- исполнительные механизмы&#45;&gt;приводы ног -->
<g id="edge1" class="edge"><title>исполнительные механизмы&#45;&gt;приводы ног</title>
<path fill="none" stroke="black" d="M165.515,-115.587C204.041,-129.412 258.708,-149.028 297.572,-162.973"/>
<polygon fill="black" stroke="black" points="296.498,-166.306 307.093,-166.39 298.862,-159.718 296.498,-166.306"/>
</g>
<!-- приводы рук -->
<g id="node3" class="node"><title>приводы рук</title>
<ellipse fill="none" stroke="black" cx="346.022" cy="-126" rx="59.5901" ry="18"/>
<text text-anchor="middle" x="346.022" y="-122.3" font-family="Times,serif" font-size="14.00">приводы рук</text>
</g>
<!-- исполнительные механизмы&#45;&gt;приводы рук -->
<g id="edge2" class="edge"><title>исполнительные механизмы&#45;&gt;приводы рук</title>
<path fill="none" stroke="black" d="M211.755,-110.06C234.67,-112.801 258.745,-115.68 280.032,-118.226"/>
<polygon fill="black" stroke="black" points="279.895,-121.735 290.24,-119.447 280.727,-114.785 279.895,-121.735"/>
</g>
<!-- приводы головы -->
<g id="node4" class="node"><title>приводы головы</title>
<ellipse fill="none" stroke="black" cx="346.022" cy="-72" rx="73.387" ry="18"/>
<text text-anchor="middle" x="346.022" y="-68.3" font-family="Times,serif" font-size="14.00">приводы головы</text>
</g>
<!-- исполнительные механизмы&#45;&gt;приводы головы -->
<g id="edge3" class="edge"><title>исполнительные механизмы&#45;&gt;приводы головы</title>
<path fill="none" stroke="black" d="M211.755,-87.9402C230.966,-85.6423 250.992,-83.247 269.508,-81.0324"/>
<polygon fill="black" stroke="black" points="270.11,-84.4854 279.623,-79.8224 269.278,-77.5349 270.11,-84.4854"/>
</g>
<!-- приводы кистей -->
<g id="node5" class="node"><title>приводы кистей</title>
<ellipse fill="none" stroke="black" cx="346.022" cy="-18" rx="73.387" ry="18"/>
<text text-anchor="middle" x="346.022" y="-14.3" font-family="Times,serif" font-size="14.00">приводы кистей</text>
</g>
<!-- исполнительные механизмы&#45;&gt;приводы кистей -->
<g id="edge4" class="edge"><title>исполнительные механизмы&#45;&gt;приводы кистей</title>
<path fill="none" stroke="black" d="M165.515,-82.413C202.971,-68.9724 255.684,-50.0576 294.297,-36.2017"/>
<polygon fill="black" stroke="black" points="295.563,-39.4663 303.793,-32.7944 293.198,-32.8776 295.563,-39.4663"/>
</g>
</g>
</svg>
