<?xml version="1.0" encoding="UTF-8" standalone="no"?>
<!DOCTYPE svg PUBLIC "-//W3C//DTD SVG 1.1//EN"
 "http://www.w3.org/Graphics/SVG/1.1/DTD/svg11.dtd">
<!-- Generated by graphviz version 2.38.0 (20140413.2041)
 -->
<!-- Title: g Pages: 1 -->
<svg width="375pt" height="206pt"
 viewBox="0.00 0.00 375.47 206.00" xmlns="http://www.w3.org/2000/svg" xmlns:xlink="http://www.w3.org/1999/xlink">
<g id="graph0" class="graph" transform="scale(1 1) rotate(0) translate(4 202)">
<title>g</title>
<polygon fill="white" stroke="none" points="-4,4 -4,-202 371.471,-202 371.471,4 -4,4"/>
<!-- система питания -->
<g id="node1" class="node"><title>система питания</title>
<ellipse fill="none" stroke="black" cx="75.3933" cy="-99" rx="75.2868" ry="18"/>
<text text-anchor="middle" x="75.3933" y="-95.3" font-family="Times,serif" font-size="14.00">система питания</text>
</g>
<!-- аккумулятор -->
<g id="node2" class="node"><title>аккумулятор</title>
<ellipse fill="none" stroke="black" cx="277.129" cy="-180" rx="59.5901" ry="18"/>
<text text-anchor="middle" x="277.129" y="-176.3" font-family="Times,serif" font-size="14.00">аккумулятор</text>
</g>
<!-- система питания&#45;&gt;аккумулятор -->
<g id="edge1" class="edge"><title>система питания&#45;&gt;аккумулятор</title>
<path fill="none" stroke="black" d="M106.725,-115.489C128.575,-126.955 158.984,-142.081 186.787,-153 197.98,-157.396 210.193,-161.512 221.893,-165.142"/>
<polygon fill="black" stroke="black" points="220.981,-168.523 231.567,-168.072 223.01,-161.823 220.981,-168.523"/>
</g>
<!-- зарядное устройство -->
<g id="node3" class="node"><title>зарядное устройство</title>
<ellipse fill="none" stroke="black" cx="277.129" cy="-126" rx="90.1842" ry="18"/>
<text text-anchor="middle" x="277.129" y="-122.3" font-family="Times,serif" font-size="14.00">зарядное устройство</text>
</g>
<!-- система питания&#45;&gt;зарядное устройство -->
<g id="edge2" class="edge"><title>система питания&#45;&gt;зарядное устройство</title>
<path fill="none" stroke="black" d="M141.518,-107.803C157.45,-109.957 174.73,-112.293 191.431,-114.551"/>
<polygon fill="black" stroke="black" points="191.359,-118.073 201.737,-115.944 192.296,-111.136 191.359,-118.073"/>
</g>
<!-- DC / DC 12V &#45;&gt; 5V -->
<g id="node4" class="node"><title>DC / DC 12V &#45;&gt; 5V</title>
<ellipse fill="none" stroke="black" cx="277.129" cy="-72" rx="83.6854" ry="18"/>
<text text-anchor="middle" x="277.129" y="-68.3" font-family="Times,serif" font-size="14.00">DC / DC 12V &#45;&gt; 5V</text>
</g>
<!-- система питания&#45;&gt;DC / DC 12V &#45;&gt; 5V -->
<g id="edge3" class="edge"><title>система питания&#45;&gt;DC / DC 12V &#45;&gt; 5V</title>
<path fill="none" stroke="black" d="M141.518,-90.1966C158.727,-87.8702 177.509,-85.3312 195.435,-82.9081"/>
<polygon fill="black" stroke="black" points="196.139,-86.3448 205.58,-81.5367 195.201,-79.4079 196.139,-86.3448"/>
</g>
<!-- модуль реле -->
<g id="node5" class="node"><title>модуль реле</title>
<ellipse fill="none" stroke="black" cx="277.129" cy="-18" rx="57.6901" ry="18"/>
<text text-anchor="middle" x="277.129" y="-14.3" font-family="Times,serif" font-size="14.00">модуль реле</text>
</g>
<!-- система питания&#45;&gt;модуль реле -->
<g id="edge4" class="edge"><title>система питания&#45;&gt;модуль реле</title>
<path fill="none" stroke="black" d="M106.725,-82.5112C128.575,-71.0448 158.984,-55.9185 186.787,-45 198.216,-40.5115 210.708,-36.3144 222.631,-32.6295"/>
<polygon fill="black" stroke="black" points="223.914,-35.8983 232.477,-29.6595 221.893,-29.1965 223.914,-35.8983"/>
</g>
</g>
</svg>
