<?xml version="1.0" encoding="UTF-8" standalone="no"?>
<!DOCTYPE svg PUBLIC "-//W3C//DTD SVG 1.1//EN"
 "http://www.w3.org/Graphics/SVG/1.1/DTD/svg11.dtd">
<!-- Generated by graphviz version 2.38.0 (20140413.2041)
 -->
<!-- Title: g Pages: 1 -->
<svg width="2032pt" height="655pt"
 viewBox="0.00 0.00 2032.46 655.00" xmlns="http://www.w3.org/2000/svg" xmlns:xlink="http://www.w3.org/1999/xlink">
<g id="graph0" class="graph" transform="scale(1 1) rotate(0) translate(4 651)">
<title>g</title>
<polygon fill="white" stroke="none" points="-4,4 -4,-651 2028.46,-651 2028.46,4 -4,4"/>
<!-- робот -->
<g id="node1" class="node"><title>робот</title>
<ellipse fill="none" stroke="black" cx="32.4971" cy="-247" rx="32.4942" ry="18"/>
<text text-anchor="middle" x="32.4971" y="-243.3" font-family="Times,serif" font-size="14.00">робот</text>
</g>
<!-- вычислительные средства -->
<g id="node2" class="node"><title>вычислительные средства</title>
<ellipse fill="none" stroke="black" cx="1041.23" cy="-501" rx="110.48" ry="18"/>
<text text-anchor="middle" x="1041.23" y="-497.3" font-family="Times,serif" font-size="14.00">вычислительные средства</text>
</g>
<!-- робот&#45;&gt;вычислительные средства -->
<g id="edge1" class="edge"><title>робот&#45;&gt;вычислительные средства</title>
<path fill="none" stroke="black" d="M38.3142,-264.917C51.7562,-310.446 94.1946,-427 176.388,-427 176.388,-427 176.388,-427 794.897,-427 868.302,-427 948.999,-457.741 997.095,-479.596"/>
<polygon fill="black" stroke="black" points="995.722,-482.817 1006.27,-483.837 998.66,-476.463 995.722,-482.817"/>
</g>
<!-- исполнительные механизмы -->
<g id="node3" class="node"><title>исполнительные механизмы</title>
<ellipse fill="none" stroke="black" cx="1648.99" cy="-55" rx="118.079" ry="18"/>
<text text-anchor="middle" x="1648.99" y="-51.3" font-family="Times,serif" font-size="14.00">исполнительные механизмы</text>
</g>
<!-- робот&#45;&gt;исполнительные механизмы -->
<g id="edge2" class="edge"><title>робот&#45;&gt;исполнительные механизмы</title>
<path fill="none" stroke="black" d="M37.4458,-228.912C49.2113,-180.391 88.7977,-51 176.388,-51 176.388,-51 176.388,-51 1322.06,-51 1387.72,-51 1460.82,-51.8218 1521.13,-52.7204"/>
<polygon fill="black" stroke="black" points="1521.41,-56.225 1531.46,-52.877 1521.52,-49.2258 1521.41,-56.225"/>
</g>
<!-- датчики окруж. обстановки -->
<g id="node4" class="node"><title>датчики окруж. обстановки</title>
<ellipse fill="none" stroke="black" cx="1321.06" cy="-173" rx="116.18" ry="18"/>
<text text-anchor="middle" x="1321.06" y="-169.3" font-family="Times,serif" font-size="14.00">датчики окруж. обстановки</text>
</g>
<!-- робот&#45;&gt;датчики окруж. обстановки -->
<g id="edge3" class="edge"><title>робот&#45;&gt;датчики окруж. обстановки</title>
<path fill="none" stroke="black" d="M43.2098,-229.807C63.3758,-196.626 113.217,-127 176.388,-127 176.388,-127 176.388,-127 1042.23,-127 1114.29,-127 1195.48,-142.25 1251.39,-155.189"/>
<polygon fill="black" stroke="black" points="1250.65,-158.609 1261.18,-157.491 1252.25,-151.795 1250.65,-158.609"/>
</g>
<!-- устройства ЧМВ -->
<g id="node5" class="node"><title>устройства ЧМВ</title>
<ellipse fill="none" stroke="black" cx="1648.99" cy="-602" rx="76.0865" ry="18"/>
<text text-anchor="middle" x="1648.99" y="-598.3" font-family="Times,serif" font-size="14.00">устройства ЧМВ</text>
</g>
<!-- робот&#45;&gt;устройства ЧМВ -->
<g id="edge4" class="edge"><title>робот&#45;&gt;устройства ЧМВ</title>
<path fill="none" stroke="black" d="M36.6628,-265.093C49.8239,-337.435 102.974,-602 176.388,-602 176.388,-602 176.388,-602 1322.06,-602 1403.7,-602 1496.85,-602 1562.59,-602"/>
<polygon fill="black" stroke="black" points="1562.91,-605.5 1572.91,-602 1562.91,-598.5 1562.91,-605.5"/>
</g>
<!-- система питания -->
<g id="node6" class="node"><title>система питания</title>
<ellipse fill="none" stroke="black" cx="177.388" cy="-247" rx="75.2868" ry="18"/>
<text text-anchor="middle" x="177.388" y="-243.3" font-family="Times,serif" font-size="14.00">система питания</text>
</g>
<!-- робот&#45;&gt;система питания -->
<g id="edge5" class="edge"><title>робот&#45;&gt;система питания</title>
<path fill="none" stroke="black" d="M65.2091,-247C73.2397,-247 82.2523,-247 91.5801,-247"/>
<polygon fill="black" stroke="black" points="91.7938,-250.5 101.794,-247 91.7937,-243.5 91.7938,-250.5"/>
</g>
<!-- микроконтроллер -->
<g id="node11" class="node"><title>микроконтроллер</title>
<ellipse fill="none" stroke="black" cx="1321.06" cy="-374" rx="77.9862" ry="18"/>
<text text-anchor="middle" x="1321.06" y="-370.3" font-family="Times,serif" font-size="14.00">микроконтроллер</text>
</g>
<!-- вычислительные средства&#45;&gt;микроконтроллер -->
<g id="edge20" class="edge"><title>вычислительные средства&#45;&gt;микроконтроллер</title>
<path fill="none" stroke="black" d="M1079.41,-484.004C1130.18,-460.795 1221.1,-419.237 1275.47,-394.382"/>
<polygon fill="black" stroke="black" points="1277.21,-397.434 1284.85,-390.094 1274.3,-391.068 1277.21,-397.434"/>
</g>
<!-- бортовая ЭВМ -->
<g id="node12" class="node"><title>бортовая ЭВМ</title>
<ellipse fill="none" stroke="black" cx="1648.99" cy="-525" rx="67.6881" ry="18"/>
<text text-anchor="middle" x="1648.99" y="-521.3" font-family="Times,serif" font-size="14.00">бортовая ЭВМ</text>
</g>
<!-- вычислительные средства&#45;&gt;бортовая ЭВМ -->
<g id="edge19" class="edge"><title>вычислительные средства&#45;&gt;бортовая ЭВМ</title>
<path fill="none" stroke="black" d="M1148.79,-505.222C1269.98,-510.023 1464.85,-517.744 1571.74,-521.979"/>
<polygon fill="black" stroke="black" points="1571.68,-525.479 1581.81,-522.378 1571.96,-518.485 1571.68,-525.479"/>
</g>
<!-- приводы ног -->
<g id="node17" class="node"><title>приводы ног</title>
<ellipse fill="none" stroke="black" cx="1951.02" cy="-353" rx="59.2899" ry="18"/>
<text text-anchor="middle" x="1951.02" y="-349.3" font-family="Times,serif" font-size="14.00">приводы ног</text>
</g>
<!-- исполнительные механизмы&#45;&gt;приводы ног -->
<g id="edge33" class="edge"><title>исполнительные механизмы&#45;&gt;приводы ног</title>
<path fill="none" stroke="black" d="M1710.57,-70.4142C1729.25,-75.4183 1749.84,-81.1863 1768.58,-87 1809.52,-99.7045 1833.04,-85.3314 1859.58,-119 1883.78,-149.702 1859.01,-259.597 1877.58,-294 1885.67,-308.988 1899.31,-321.606 1912.58,-331.278"/>
<polygon fill="black" stroke="black" points="1910.97,-334.418 1921.2,-337.203 1914.94,-328.651 1910.97,-334.418"/>
</g>
<!-- приводы рук -->
<g id="node18" class="node"><title>приводы рук</title>
<ellipse fill="none" stroke="black" cx="1951.02" cy="-267" rx="59.5901" ry="18"/>
<text text-anchor="middle" x="1951.02" y="-263.3" font-family="Times,serif" font-size="14.00">приводы рук</text>
</g>
<!-- исполнительные механизмы&#45;&gt;приводы рук -->
<g id="edge34" class="edge"><title>исполнительные механизмы&#45;&gt;приводы рук</title>
<path fill="none" stroke="black" d="M1753.38,-63.5202C1798.16,-69.3147 1843.91,-78.7891 1859.58,-94 1886.66,-120.293 1861.31,-142.94 1877.58,-177 1889.35,-201.641 1909.09,-225.529 1924.99,-242.494"/>
<polygon fill="black" stroke="black" points="1922.54,-244.99 1931.99,-249.78 1927.59,-240.142 1922.54,-244.99"/>
</g>
<!-- приводы кистей -->
<g id="node19" class="node"><title>приводы кистей</title>
<ellipse fill="none" stroke="black" cx="1951.02" cy="-18" rx="73.387" ry="18"/>
<text text-anchor="middle" x="1951.02" y="-14.3" font-family="Times,serif" font-size="14.00">приводы кистей</text>
</g>
<!-- исполнительные механизмы&#45;&gt;приводы кистей -->
<g id="edge36" class="edge"><title>исполнительные механизмы&#45;&gt;приводы кистей</title>
<path fill="none" stroke="black" d="M1699.66,-38.6864C1725.3,-31.0907 1757.28,-22.8867 1786.58,-19 1813.03,-15.4909 1842.09,-14.4245 1868.29,-14.4798"/>
<polygon fill="black" stroke="black" points="1868.53,-17.9817 1878.55,-14.5581 1868.58,-10.9819 1868.53,-17.9817"/>
</g>
<!-- приводы головы -->
<g id="node20" class="node"><title>приводы головы</title>
<ellipse fill="none" stroke="black" cx="1951.02" cy="-150" rx="73.387" ry="18"/>
<text text-anchor="middle" x="1951.02" y="-146.3" font-family="Times,serif" font-size="14.00">приводы головы</text>
</g>
<!-- исполнительные механизмы&#45;&gt;приводы головы -->
<g id="edge35" class="edge"><title>исполнительные механизмы&#45;&gt;приводы головы</title>
<path fill="none" stroke="black" d="M1760.3,-48.8726C1793.28,-50.5697 1828.82,-56.0508 1859.58,-69 1887.8,-80.8814 1913.11,-105.356 1929.73,-124.309"/>
<polygon fill="black" stroke="black" points="1927.16,-126.689 1936.3,-132.04 1932.49,-122.155 1927.16,-126.689"/>
</g>
<!-- дальномеры -->
<g id="node24" class="node"><title>дальномеры</title>
<ellipse fill="none" stroke="black" cx="1648.99" cy="-201" rx="56.59" ry="18"/>
<text text-anchor="middle" x="1648.99" y="-197.3" font-family="Times,serif" font-size="14.00">дальномеры</text>
</g>
<!-- датчики окруж. обстановки&#45;&gt;дальномеры -->
<g id="edge40" class="edge"><title>датчики окруж. обстановки&#45;&gt;дальномеры</title>
<path fill="none" stroke="black" d="M1423.4,-181.706C1475.87,-186.213 1538.33,-191.579 1584.04,-195.507"/>
<polygon fill="black" stroke="black" points="1583.85,-199.003 1594.12,-196.372 1584.45,-192.029 1583.85,-199.003"/>
</g>
<!-- гироскоп -->
<g id="node25" class="node"><title>гироскоп</title>
<ellipse fill="none" stroke="black" cx="1648.99" cy="-147" rx="45.4919" ry="18"/>
<text text-anchor="middle" x="1648.99" y="-143.3" font-family="Times,serif" font-size="14.00">гироскоп</text>
</g>
<!-- датчики окруж. обстановки&#45;&gt;гироскоп -->
<g id="edge41" class="edge"><title>датчики окруж. обстановки&#45;&gt;гироскоп</title>
<path fill="none" stroke="black" d="M1374.39,-156.928C1398.76,-150.254 1428.29,-143.304 1455.4,-140 1502.5,-134.258 1556.52,-137.027 1595.34,-140.638"/>
<polygon fill="black" stroke="black" points="1595.08,-144.129 1605.37,-141.621 1595.76,-137.162 1595.08,-144.129"/>
</g>
<!-- датчик движения -->
<g id="node26" class="node"><title>датчик движения</title>
<ellipse fill="none" stroke="black" cx="1648.99" cy="-255" rx="77.1866" ry="18"/>
<text text-anchor="middle" x="1648.99" y="-251.3" font-family="Times,serif" font-size="14.00">датчик движения</text>
</g>
<!-- датчики окруж. обстановки&#45;&gt;датчик движения -->
<g id="edge42" class="edge"><title>датчики окруж. обстановки&#45;&gt;датчик движения</title>
<path fill="none" stroke="black" d="M1379.12,-188.72C1420.69,-200.029 1478.41,-215.438 1529.4,-228 1546.45,-232.202 1564.94,-236.523 1582.14,-240.443"/>
<polygon fill="black" stroke="black" points="1581.56,-243.902 1592.09,-242.701 1583.11,-237.075 1581.56,-243.902"/>
</g>
<!-- камеры -->
<g id="node27" class="node"><title>камеры</title>
<ellipse fill="none" stroke="black" cx="1951.02" cy="-423" rx="38.9931" ry="18"/>
<text text-anchor="middle" x="1951.02" y="-419.3" font-family="Times,serif" font-size="14.00">камеры</text>
</g>
<!-- датчики окруж. обстановки&#45;&gt;камеры -->
<g id="edge43" class="edge"><title>датчики окруж. обстановки&#45;&gt;камеры</title>
<path fill="none" stroke="black" d="M1371.39,-156.691C1396.38,-148.818 1427.3,-139.659 1455.4,-133 1523.18,-116.939 1710.58,-81.4255 1768.58,-120 1872.91,-189.39 1795.33,-285.473 1877.58,-380 1886.99,-390.815 1899.81,-399.652 1912.06,-406.44"/>
<polygon fill="black" stroke="black" points="1910.76,-409.709 1921.24,-411.23 1913.99,-403.502 1910.76,-409.709"/>
</g>
<!-- дисплей -->
<g id="node21" class="node"><title>дисплей</title>
<ellipse fill="none" stroke="black" cx="1951.02" cy="-563" rx="42.4939" ry="18"/>
<text text-anchor="middle" x="1951.02" y="-559.3" font-family="Times,serif" font-size="14.00">дисплей</text>
</g>
<!-- устройства ЧМВ&#45;&gt;дисплей -->
<g id="edge37" class="edge"><title>устройства ЧМВ&#45;&gt;дисплей</title>
<path fill="none" stroke="black" d="M1723.85,-605.625C1764.28,-606.178 1815.07,-604.525 1859.58,-596 1877.25,-592.615 1896.05,-586.241 1911.91,-579.991"/>
<polygon fill="black" stroke="black" points="1913.43,-583.154 1921.37,-576.143 1910.79,-576.67 1913.43,-583.154"/>
</g>
<!-- микрофон -->
<g id="node22" class="node"><title>микрофон</title>
<ellipse fill="none" stroke="black" cx="1951.02" cy="-629" rx="50.0912" ry="18"/>
<text text-anchor="middle" x="1951.02" y="-625.3" font-family="Times,serif" font-size="14.00">микрофон</text>
</g>
<!-- устройства ЧМВ&#45;&gt;микрофон -->
<g id="edge38" class="edge"><title>устройства ЧМВ&#45;&gt;микрофон</title>
<path fill="none" stroke="black" d="M1712.75,-611.927C1735.9,-615.273 1762.38,-618.73 1786.58,-621 1821.01,-624.231 1859.66,-626.198 1890.72,-627.373"/>
<polygon fill="black" stroke="black" points="1890.83,-630.879 1900.95,-627.742 1891.08,-623.884 1890.83,-630.879"/>
</g>
<!-- динамики -->
<g id="node23" class="node"><title>динамики</title>
<ellipse fill="none" stroke="black" cx="1951.02" cy="-485" rx="48.9926" ry="18"/>
<text text-anchor="middle" x="1951.02" y="-481.3" font-family="Times,serif" font-size="14.00">динамики</text>
</g>
<!-- устройства ЧМВ&#45;&gt;динамики -->
<g id="edge39" class="edge"><title>устройства ЧМВ&#45;&gt;динамики</title>
<path fill="none" stroke="black" d="M1723.41,-598.202C1774.86,-594.243 1838.12,-586.363 1859.58,-571 1873.8,-560.818 1866.09,-549.194 1877.58,-536 1887.92,-524.122 1901.57,-513.589 1914.24,-505.223"/>
<polygon fill="black" stroke="black" points="1916.23,-508.104 1922.79,-499.788 1912.48,-502.195 1916.23,-508.104"/>
</g>
<!-- аккумулятор -->
<g id="node7" class="node"><title>аккумулятор</title>
<ellipse fill="none" stroke="black" cx="590.26" cy="-241" rx="59.5901" ry="18"/>
<text text-anchor="middle" x="590.26" y="-237.3" font-family="Times,serif" font-size="14.00">аккумулятор</text>
</g>
<!-- система питания&#45;&gt;аккумулятор -->
<g id="edge6" class="edge"><title>система питания&#45;&gt;аккумулятор</title>
<path fill="none" stroke="black" d="M251.78,-244.06C264.451,-243.639 277.495,-243.262 289.781,-243 368.772,-241.318 459.508,-240.928 520.212,-240.889"/>
<polygon fill="black" stroke="black" points="520.439,-244.389 530.438,-240.886 520.437,-237.389 520.439,-244.389"/>
</g>
<!-- зарядное устройство -->
<g id="node8" class="node"><title>зарядное устройство</title>
<ellipse fill="none" stroke="black" cx="380.123" cy="-270" rx="90.1842" ry="18"/>
<text text-anchor="middle" x="380.123" y="-266.3" font-family="Times,serif" font-size="14.00">зарядное устройство</text>
</g>
<!-- система питания&#45;&gt;зарядное устройство -->
<g id="edge7" class="edge"><title>система питания&#45;&gt;зарядное устройство</title>
<path fill="none" stroke="black" d="M245.788,-254.723C260.457,-256.403 276.182,-258.205 291.505,-259.961"/>
<polygon fill="black" stroke="black" points="291.168,-263.445 301.501,-261.106 291.964,-256.491 291.168,-263.445"/>
</g>
<!-- DC / DC 12V &#45;&gt; 5V -->
<g id="node9" class="node"><title>DC / DC 12V &#45;&gt; 5V</title>
<ellipse fill="none" stroke="black" cx="793.897" cy="-304" rx="83.6854" ry="18"/>
<text text-anchor="middle" x="793.897" y="-300.3" font-family="Times,serif" font-size="14.00">DC / DC 12V &#45;&gt; 5V</text>
</g>
<!-- система питания&#45;&gt;DC / DC 12V &#45;&gt; 5V -->
<g id="edge8" class="edge"><title>система питания&#45;&gt;DC / DC 12V &#45;&gt; 5V</title>
<path fill="none" stroke="black" d="M207.039,-263.795C228.895,-275.613 260.185,-290.447 289.781,-297 434.287,-328.997 607.895,-321.707 708.784,-313.117"/>
<polygon fill="black" stroke="black" points="709.261,-316.589 718.917,-312.229 708.65,-309.615 709.261,-316.589"/>
</g>
<!-- модуль реле -->
<g id="node10" class="node"><title>модуль реле</title>
<ellipse fill="none" stroke="black" cx="1041.23" cy="-241" rx="57.6901" ry="18"/>
<text text-anchor="middle" x="1041.23" y="-237.3" font-family="Times,serif" font-size="14.00">модуль реле</text>
</g>
<!-- система питания&#45;&gt;модуль реле -->
<g id="edge9" class="edge"><title>система питания&#45;&gt;модуль реле</title>
<path fill="none" stroke="black" d="M210.508,-230.813C249.402,-212.742 317.385,-186 379.123,-186 379.123,-186 379.123,-186 794.897,-186 865.339,-186 944.464,-207.857 993.33,-224.014"/>
<polygon fill="black" stroke="black" points="992.392,-227.391 1002.99,-227.263 994.625,-220.757 992.392,-227.391"/>
</g>
<!-- аккумулятор&#45;&gt;исполнительные механизмы -->
<g id="edge32" class="edge"><title>аккумулятор&#45;&gt;исполнительные механизмы</title>
<path fill="none" stroke="black" d="M622.637,-225.745C681.467,-197.927 813.042,-139.397 930.739,-113 987.484,-100.273 1341.13,-75.3766 1529.75,-62.746"/>
<polygon fill="black" stroke="black" points="1530.25,-66.2207 1540,-62.0614 1529.78,-59.2362 1530.25,-66.2207"/>
</g>
<!-- аккумулятор&#45;&gt;DC / DC 12V &#45;&gt; 5V -->
<g id="edge18" class="edge"><title>аккумулятор&#45;&gt;DC / DC 12V &#45;&gt; 5V</title>
<path fill="none" stroke="black" d="M632.55,-253.901C662.309,-263.199 702.848,-275.865 735.718,-286.135"/>
<polygon fill="black" stroke="black" points="735.064,-289.597 745.653,-289.239 737.151,-282.916 735.064,-289.597"/>
<text text-anchor="middle" x="680.054" y="-276.8" font-family="Times,serif" font-size="14.00">12V</text>
</g>
<!-- аккумулятор&#45;&gt;модуль реле -->
<g id="edge10" class="edge"><title>аккумулятор&#45;&gt;модуль реле</title>
<path fill="none" stroke="black" d="M650.416,-241C733.789,-241 885.433,-241 972.982,-241"/>
<polygon fill="black" stroke="black" points="973.072,-244.5 983.072,-241 973.072,-237.5 973.072,-244.5"/>
<text text-anchor="middle" x="793.897" y="-244.8" font-family="Times,serif" font-size="14.00">12V</text>
</g>
<!-- зарядное устройство&#45;&gt;аккумулятор -->
<g id="edge17" class="edge"><title>зарядное устройство&#45;&gt;аккумулятор</title>
<path fill="none" stroke="black" d="M454.504,-259.776C477.645,-256.551 503.009,-253.017 525.428,-249.894"/>
<polygon fill="black" stroke="black" points="526.081,-253.337 535.503,-248.49 525.115,-246.404 526.081,-253.337"/>
<text text-anchor="middle" x="500.465" y="-258.8" font-family="Times,serif" font-size="14.00">12V</text>
</g>
<!-- DC / DC 12V &#45;&gt; 5V&#45;&gt;устройства ЧМВ -->
<g id="edge14" class="edge"><title>DC / DC 12V &#45;&gt; 5V&#45;&gt;устройства ЧМВ</title>
<path fill="none" stroke="black" d="M799.825,-322.154C812.823,-366.154 852.531,-478.505 930.739,-528 931.579,-528.531 1382.7,-574.814 1568.98,-593.905"/>
<polygon fill="black" stroke="black" points="1568.68,-597.393 1578.98,-594.931 1569.39,-590.429 1568.68,-597.393"/>
<text text-anchor="middle" x="1178.22" y="-557.8" font-family="Times,serif" font-size="14.00">5V</text>
</g>
<!-- DC / DC 12V &#45;&gt; 5V&#45;&gt;модуль реле -->
<g id="edge13" class="edge"><title>DC / DC 12V &#45;&gt; 5V&#45;&gt;модуль реле</title>
<path fill="none" stroke="black" d="M848.433,-290.252C889.201,-279.783 945.095,-265.43 986.027,-254.919"/>
<polygon fill="black" stroke="black" points="987.015,-258.279 995.83,-252.402 985.274,-251.499 987.015,-258.279"/>
<text text-anchor="middle" x="904.239" y="-280.8" font-family="Times,serif" font-size="14.00">5V</text>
</g>
<!-- модуль реле&#45;&gt;датчики окруж. обстановки -->
<g id="edge15" class="edge"><title>модуль реле&#45;&gt;датчики окруж. обстановки</title>
<path fill="none" stroke="black" d="M1087.18,-229.999C1130.66,-219.357 1197.26,-203.055 1248.12,-190.607"/>
<polygon fill="black" stroke="black" points="1249.19,-193.949 1258.07,-188.172 1247.53,-187.149 1249.19,-193.949"/>
<text text-anchor="middle" x="1178.22" y="-213.8" font-family="Times,serif" font-size="14.00">5V</text>
</g>
<!-- модуль реле&#45;&gt;микроконтроллер -->
<g id="edge11" class="edge"><title>модуль реле&#45;&gt;микроконтроллер</title>
<path fill="none" stroke="black" d="M1073.56,-255.998C1123.33,-279.824 1220.57,-326.376 1276.9,-353.341"/>
<polygon fill="black" stroke="black" points="1275.72,-356.655 1286.25,-357.816 1278.74,-350.341 1275.72,-356.655"/>
<text text-anchor="middle" x="1178.22" y="-310.8" font-family="Times,serif" font-size="14.00">5V</text>
</g>
<!-- модуль реле&#45;&gt;бортовая ЭВМ -->
<g id="edge12" class="edge"><title>модуль реле&#45;&gt;бортовая ЭВМ</title>
<path fill="none" stroke="black" d="M1055.5,-258.501C1081,-291.002 1140.08,-361.004 1204.72,-401 1304.88,-462.975 1341.65,-456.418 1455.4,-487 1496.46,-498.04 1543.25,-507.345 1580.42,-513.984"/>
<polygon fill="black" stroke="black" points="1580.18,-517.496 1590.64,-515.785 1581.4,-510.602 1580.18,-517.496"/>
<text text-anchor="middle" x="1321.06" y="-485.8" font-family="Times,serif" font-size="14.00">12V</text>
</g>
<!-- лампочки -->
<g id="node13" class="node"><title>лампочки</title>
<ellipse fill="none" stroke="black" cx="1648.99" cy="-309" rx="48.1917" ry="18"/>
<text text-anchor="middle" x="1648.99" y="-305.3" font-family="Times,serif" font-size="14.00">лампочки</text>
</g>
<!-- модуль реле&#45;&gt;лампочки -->
<g id="edge16" class="edge"><title>модуль реле&#45;&gt;лампочки</title>
<path fill="none" stroke="black" d="M1096.88,-236.058C1205.12,-227.282 1442.3,-213.395 1511.4,-253 1524.56,-260.543 1517.05,-273.191 1529.4,-282 1547.27,-294.75 1570.19,-301.597 1591.11,-305.233"/>
<polygon fill="black" stroke="black" points="1590.77,-308.722 1601.19,-306.771 1591.83,-301.802 1590.77,-308.722"/>
<text text-anchor="middle" x="1321.06" y="-236.8" font-family="Times,serif" font-size="14.00">12V</text>
</g>
<!-- микроконтроллер&#45;&gt;бортовая ЭВМ -->
<g id="edge22" class="edge"><title>микроконтроллер&#45;&gt;бортовая ЭВМ</title>
<path fill="none" stroke="black" d="M1355.95,-390.236C1405.11,-418.734 1494.17,-474.87 1529.4,-489 1550.72,-497.55 1575.33,-503.708 1596.59,-508.655"/>
<polygon fill="black" stroke="black" points="1595.88,-512.083 1606.41,-510.918 1597.45,-505.262 1595.88,-512.083"/>
</g>
<!-- микроконтроллер&#45;&gt;лампочки -->
<g id="edge23" class="edge"><title>микроконтроллер&#45;&gt;лампочки</title>
<path fill="none" stroke="black" d="M1380.71,-362.304C1441.91,-350.098 1536.98,-331.138 1595.7,-319.427"/>
<polygon fill="black" stroke="black" points="1596.75,-322.787 1605.87,-317.399 1595.38,-315.922 1596.75,-322.787"/>
</g>
<!-- драйвер моторов ног -->
<g id="node14" class="node"><title>драйвер моторов ног</title>
<ellipse fill="none" stroke="black" cx="1648.99" cy="-471" rx="90.9839" ry="18"/>
<text text-anchor="middle" x="1648.99" y="-467.3" font-family="Times,serif" font-size="14.00">драйвер моторов ног</text>
</g>
<!-- микроконтроллер&#45;&gt;драйвер моторов ног -->
<g id="edge24" class="edge"><title>микроконтроллер&#45;&gt;драйвер моторов ног</title>
<path fill="none" stroke="black" d="M1362.98,-389.191C1404.53,-404.288 1470.89,-427.509 1529.4,-444 1544.24,-448.182 1560.26,-452.175 1575.58,-455.746"/>
<polygon fill="black" stroke="black" points="1575,-459.203 1585.52,-458.03 1576.56,-452.381 1575,-459.203"/>
</g>
<!-- драйвер моторов рук -->
<g id="node15" class="node"><title>драйвер моторов рук</title>
<ellipse fill="none" stroke="black" cx="1648.99" cy="-417" rx="91.784" ry="18"/>
<text text-anchor="middle" x="1648.99" y="-413.3" font-family="Times,serif" font-size="14.00">драйвер моторов рук</text>
</g>
<!-- микроконтроллер&#45;&gt;драйвер моторов рук -->
<g id="edge25" class="edge"><title>микроконтроллер&#45;&gt;драйвер моторов рук</title>
<path fill="none" stroke="black" d="M1389.2,-382.857C1439.37,-389.477 1508.34,-398.576 1562.46,-405.716"/>
<polygon fill="black" stroke="black" points="1562.01,-409.188 1572.39,-407.026 1562.93,-402.248 1562.01,-409.188"/>
</g>
<!-- контроллер серво&#45; приводов -->
<g id="node16" class="node"><title>контроллер серво&#45; приводов</title>
<ellipse fill="none" stroke="black" cx="1648.99" cy="-363" rx="119.679" ry="18"/>
<text text-anchor="middle" x="1648.99" y="-359.3" font-family="Times,serif" font-size="14.00">контроллер серво&#45; приводов</text>
</g>
<!-- микроконтроллер&#45;&gt;контроллер серво&#45; приводов -->
<g id="edge26" class="edge"><title>микроконтроллер&#45;&gt;контроллер серво&#45; приводов</title>
<path fill="none" stroke="black" d="M1391.18,-366.031C1428.71,-363.756 1476.32,-361.826 1520.32,-360.702"/>
<polygon fill="black" stroke="black" points="1520.62,-364.195 1530.53,-360.454 1520.45,-357.197 1520.62,-364.195"/>
</g>
<!-- микроконтроллер&#45;&gt;контроллер серво&#45; приводов -->
<g id="edge27" class="edge"><title>микроконтроллер&#45;&gt;контроллер серво&#45; приводов</title>
<path fill="none" stroke="black" d="M1398.06,-377.246C1439.68,-376.837 1492.01,-375.275 1538.01,-373.134"/>
<polygon fill="black" stroke="black" points="1538.21,-376.629 1548.03,-372.654 1537.87,-369.637 1538.21,-376.629"/>
</g>
<!-- микроконтроллер&#45;&gt;дальномеры -->
<g id="edge44" class="edge"><title>микроконтроллер&#45;&gt;дальномеры</title>
<path fill="none" stroke="black" d="M1340.54,-356.329C1374.73,-324.771 1451.52,-259.12 1529.4,-228 1547.93,-220.594 1568.95,-214.976 1588.08,-210.836"/>
<polygon fill="black" stroke="black" points="1588.82,-214.259 1597.9,-208.803 1587.4,-207.404 1588.82,-214.259"/>
<text text-anchor="middle" x="1483.4" y="-270.8" font-family="Times,serif" font-size="14.00">trig / echo</text>
</g>
<!-- микроконтроллер&#45;&gt;гироскоп -->
<g id="edge45" class="edge"><title>микроконтроллер&#45;&gt;гироскоп</title>
<path fill="none" stroke="black" d="M1343.54,-356.614C1368.64,-335.428 1410.19,-297.539 1437.4,-258 1448.45,-241.94 1442.42,-232.545 1455.4,-218 1480.88,-189.451 1493.87,-188.198 1529.4,-174 1550.55,-165.55 1574.92,-159.427 1596.06,-155.171"/>
<polygon fill="black" stroke="black" points="1596.98,-158.557 1606.14,-153.23 1595.66,-151.683 1596.98,-158.557"/>
<text text-anchor="middle" x="1483.4" y="-221.8" font-family="Times,serif" font-size="14.00">i2c</text>
</g>
<!-- микроконтроллер&#45;&gt;датчик движения -->
<g id="edge46" class="edge"><title>микроконтроллер&#45;&gt;датчик движения</title>
<path fill="none" stroke="black" d="M1353.97,-357.506C1394.03,-337.346 1465.31,-303.293 1529.4,-282 1545,-276.818 1562.08,-272.291 1578.29,-268.5"/>
<polygon fill="black" stroke="black" points="1579.28,-271.864 1588.25,-266.235 1577.73,-265.039 1579.28,-271.864"/>
<text text-anchor="middle" x="1483.4" y="-311.8" font-family="Times,serif" font-size="14.00">i2c</text>
</g>
<!-- бортовая ЭВМ&#45;&gt;микроконтроллер -->
<g id="edge21" class="edge"><title>бортовая ЭВМ&#45;&gt;микроконтроллер</title>
<path fill="none" stroke="black" d="M1581.93,-522.502C1564.51,-518.841 1545.96,-513.642 1529.4,-507 1492.66,-492.265 1397.38,-431.849 1349.86,-397.517"/>
<polygon fill="black" stroke="black" points="1351.7,-394.525 1341.57,-391.427 1347.55,-400.167 1351.7,-394.525"/>
</g>
<!-- бортовая ЭВМ&#45;&gt;дисплей -->
<g id="edge48" class="edge"><title>бортовая ЭВМ&#45;&gt;дисплей</title>
<path fill="none" stroke="black" d="M1705.93,-515.265C1748.61,-509.719 1808.54,-506.005 1859.58,-518 1880.32,-522.875 1901.75,-533.259 1918.54,-542.825"/>
<polygon fill="black" stroke="black" points="1916.96,-545.958 1927.35,-548.015 1920.51,-539.925 1916.96,-545.958"/>
<text text-anchor="middle" x="1823.08" y="-521.8" font-family="Times,serif" font-size="14.00">hdmi</text>
</g>
<!-- бортовая ЭВМ&#45;&gt;микрофон -->
<g id="edge49" class="edge"><title>бортовая ЭВМ&#45;&gt;микрофон</title>
<path fill="none" stroke="black" d="M1691.08,-539.243C1746.91,-558.595 1846.41,-593.086 1904.47,-613.209"/>
<polygon fill="black" stroke="black" points="1903.51,-616.584 1914.11,-616.552 1905.81,-609.97 1903.51,-616.584"/>
<text text-anchor="middle" x="1823.08" y="-598.8" font-family="Times,serif" font-size="14.00">audio кабель</text>
</g>
<!-- бортовая ЭВМ&#45;&gt;динамики -->
<g id="edge50" class="edge"><title>бортовая ЭВМ&#45;&gt;динамики</title>
<path fill="none" stroke="black" d="M1704.15,-514.424C1724.52,-509.988 1747.78,-504.373 1768.58,-498 1776.78,-495.485 1778.17,-492.737 1786.58,-491 1821.18,-483.849 1860.76,-482.232 1892.3,-482.459"/>
<polygon fill="black" stroke="black" points="1892.63,-485.964 1902.67,-482.602 1892.72,-478.965 1892.63,-485.964"/>
<text text-anchor="middle" x="1823.08" y="-494.8" font-family="Times,serif" font-size="14.00">audio кабель</text>
</g>
<!-- бортовая ЭВМ&#45;&gt;камеры -->
<g id="edge47" class="edge"><title>бортовая ЭВМ&#45;&gt;камеры</title>
<path fill="none" stroke="black" d="M1714.65,-520.503C1733.51,-516.627 1753.16,-509.816 1768.58,-498 1782.15,-487.6 1773.12,-474.548 1786.58,-464 1819.48,-438.21 1866.57,-428.437 1901.77,-424.835"/>
<polygon fill="black" stroke="black" points="1902.17,-428.314 1911.81,-423.939 1901.54,-421.341 1902.17,-428.314"/>
<text text-anchor="middle" x="1823.08" y="-467.8" font-family="Times,serif" font-size="14.00">usb</text>
</g>
<!-- драйвер моторов ног&#45;&gt;приводы ног -->
<g id="edge28" class="edge"><title>драйвер моторов ног&#45;&gt;приводы ног</title>
<path fill="none" stroke="black" d="M1722.89,-460.461C1738.49,-456.564 1754.5,-451.246 1768.58,-444 1778.1,-439.102 1777.62,-433.852 1786.58,-428 1823.22,-404.076 1868.73,-383.867 1902.42,-370.476"/>
<polygon fill="black" stroke="black" points="1903.99,-373.618 1912.03,-366.713 1901.44,-367.1 1903.99,-373.618"/>
</g>
<!-- драйвер моторов рук&#45;&gt;приводы рук -->
<g id="edge29" class="edge"><title>драйвер моторов рук&#45;&gt;приводы рук</title>
<path fill="none" stroke="black" d="M1720.04,-405.584C1736.34,-401.697 1753.37,-396.604 1768.58,-390 1827.79,-364.28 1888.19,-318.643 1922.21,-290.774"/>
<polygon fill="black" stroke="black" points="1924.81,-293.169 1930.28,-284.095 1920.34,-287.778 1924.81,-293.169"/>
</g>
<!-- контроллер серво&#45; приводов&#45;&gt;приводы кистей -->
<g id="edge30" class="edge"><title>контроллер серво&#45; приводов&#45;&gt;приводы кистей</title>
<path fill="none" stroke="black" d="M1745.01,-352.156C1753.76,-348.123 1761.84,-342.853 1768.58,-336 1795.95,-308.146 1771.01,-285.814 1786.58,-250 1822.67,-166.972 1891.15,-83.6084 1926.94,-43.167"/>
<polygon fill="black" stroke="black" points="1929.59,-45.4537 1933.64,-35.6638 1924.37,-40.7908 1929.59,-45.4537"/>
</g>
<!-- контроллер серво&#45; приводов&#45;&gt;приводы головы -->
<g id="edge31" class="edge"><title>контроллер серво&#45; приводов&#45;&gt;приводы головы</title>
<path fill="none" stroke="black" d="M1733.9,-350.275C1745.96,-346.648 1757.89,-341.988 1768.58,-336 1806.26,-314.882 1889.1,-221.276 1928.45,-175.449"/>
<polygon fill="black" stroke="black" points="1931.2,-177.611 1935.05,-167.737 1925.89,-173.06 1931.2,-177.611"/>
</g>
</g>
</svg>
