<?xml version="1.0" encoding="UTF-8" standalone="no"?>
<!DOCTYPE svg PUBLIC "-//W3C//DTD SVG 1.1//EN"
 "http://www.w3.org/Graphics/SVG/1.1/DTD/svg11.dtd">
<!-- Generated by graphviz version 2.38.0 (20140413.2041)
 -->
<!-- Title: g Pages: 1 -->
<svg width="296pt" height="152pt"
 viewBox="0.00 0.00 296.18 152.00" xmlns="http://www.w3.org/2000/svg" xmlns:xlink="http://www.w3.org/1999/xlink">
<g id="graph0" class="graph" transform="scale(1 1) rotate(0) translate(4 148)">
<title>g</title>
<polygon fill="white" stroke="none" points="-4,4 -4,-148 292.178,-148 292.178,4 -4,4"/>
<!-- устройства ЧМВ -->
<g id="node1" class="node"><title>устройства ЧМВ</title>
<ellipse fill="none" stroke="black" cx="76.0433" cy="-72" rx="76.0865" ry="18"/>
<text text-anchor="middle" x="76.0433" y="-68.3" font-family="Times,serif" font-size="14.00">устройства ЧМВ</text>
</g>
<!-- дисплей -->
<g id="node2" class="node"><title>дисплей</title>
<ellipse fill="none" stroke="black" cx="238.132" cy="-126" rx="42.4939" ry="18"/>
<text text-anchor="middle" x="238.132" y="-122.3" font-family="Times,serif" font-size="14.00">дисплей</text>
</g>
<!-- устройства ЧМВ&#45;&gt;дисплей -->
<g id="edge1" class="edge"><title>устройства ЧМВ&#45;&gt;дисплей</title>
<path fill="none" stroke="black" d="M120.788,-86.7557C143.852,-94.5355 172.017,-104.036 194.858,-111.741"/>
<polygon fill="black" stroke="black" points="194.021,-115.152 204.615,-115.032 196.258,-108.519 194.021,-115.152"/>
</g>
<!-- микрофон -->
<g id="node3" class="node"><title>микрофон</title>
<ellipse fill="none" stroke="black" cx="238.132" cy="-72" rx="50.0912" ry="18"/>
<text text-anchor="middle" x="238.132" y="-68.3" font-family="Times,serif" font-size="14.00">микрофон</text>
</g>
<!-- устройства ЧМВ&#45;&gt;микрофон -->
<g id="edge2" class="edge"><title>устройства ЧМВ&#45;&gt;микрофон</title>
<path fill="none" stroke="black" d="M152.4,-72C160.839,-72 169.348,-72 177.55,-72"/>
<polygon fill="black" stroke="black" points="177.746,-75.5001 187.746,-72 177.746,-68.5001 177.746,-75.5001"/>
</g>
<!-- динамики -->
<g id="node4" class="node"><title>динамики</title>
<ellipse fill="none" stroke="black" cx="238.132" cy="-18" rx="48.9926" ry="18"/>
<text text-anchor="middle" x="238.132" y="-14.3" font-family="Times,serif" font-size="14.00">динамики</text>
</g>
<!-- устройства ЧМВ&#45;&gt;динамики -->
<g id="edge3" class="edge"><title>устройства ЧМВ&#45;&gt;динамики</title>
<path fill="none" stroke="black" d="M120.788,-57.2443C142.884,-49.7909 169.663,-40.7583 191.956,-33.2385"/>
<polygon fill="black" stroke="black" points="193.172,-36.5222 201.529,-30.0095 190.934,-29.8893 193.172,-36.5222"/>
</g>
</g>
</svg>
